<?xml version="1.0" encoding="utf-8"?>
<!-- Generator: Adobe Illustrator 28.0.0, SVG Export Plug-In . SVG Version: 6.00 Build 0)  -->
<svg version="1.1" id="Layer_1" xmlns="http://www.w3.org/2000/svg" xmlns:xlink="http://www.w3.org/1999/xlink" x="0px" y="0px"
	 viewBox="0 0 75 26" style="enable-background:new 0 0 75 26;" xml:space="preserve">
<style type="text/css">
	.st0{enable-background:new    ;}
</style>
<path d="M14.7,14c-0.3-1.9-0.6-3.8-0.2-5.7c0,0-0.1,0-0.1,0c-0.1,0.4-0.2,0.8-0.3,1.2c-0.1,0.9,0,1.9,0.1,2.8
	c0.1,0.6,0.1,1.3,0.2,1.9c0,0.1,0,0.2,0,0.2c-0.6,1-1.3,1.9-1.9,2.9c0,0,0,0.1-0.1,0.1c0-0.4-0.1-0.7-0.1-1
	c-0.2-0.9-0.4-1.9-0.6-2.8c-0.3-1.2-0.5-2.4-0.3-3.7c0-0.1,0-0.1,0-0.2c-0.2,1-0.2,1.9-0.1,2.9c-0.5-0.2-1.1-1-1.4-2
	c0,0.1,0,0.3,0.1,0.4c0.2,0.7,0.6,1.4,1.3,1.7c0.1,0,0.1,0.1,0.1,0.1c0.2,1,0.5,2,0.7,3.1c0.1,0.5,0.1,1.1,0.1,1.6
	c0,0.1,0,0.1,0,0.2c-0.4,0.5-0.8,1-1.3,1.5c0-0.9-0.3-1.7-0.7-2.4c-0.3-0.5-0.6-0.9-0.9-1.4c-0.4-0.7-0.9-1.4-1-2.2
	c0-0.2-0.1-0.4-0.1-0.6c-0.1,0.9,0.3,1.7,0.8,2.5C8,15,7.4,14.6,6.9,14.1c0,0,0.1,0.1,0.1,0.1c0.5,0.5,1.1,1,1.9,1.2
	c0.1,0,0.1,0.1,0.1,0.1c0.4,0.8,0.9,1.5,1.3,2.3c0.3,0.5,0.3,1.1,0.2,1.7c-0.1,0.3-0.3,0.4-0.5,0.6c-0.2-0.6-0.6-0.9-1.1-1.2
	c-0.5-0.3-0.9-0.6-1.4-0.9c-0.7-0.5-1.2-1.3-1.5-2.1c-0.3-1-0.5-2-0.2-3.1C5.9,12.7,6,12.5,6,12.3c0,0,0,0,0.1,0
	c0.1,0.2,0.3,0.4,0.4,0.6c0.1-1,0.2-1.9,0.8-2.8c0.1,0.2,0.2,0.4,0.3,0.6c0.1-0.4,0.2-0.7,0.4-1C8,9.4,8.2,9.2,8.5,9
	c0.1,0.3,0.2,0.5,0.2,0.8c0,0,0.1,0,0.1,0C9,9.6,9.1,9.4,9.2,9.2c0.2-0.3,0.3-0.6,0.5-0.9c0.2-0.3,0.4-0.6,0.8-0.7
	c0,0.1,0,0.2,0.1,0.4c0.1-0.1,0.3-0.2,0.4-0.3c0.2-0.2,0.3-0.4,0.5-0.5c0.2-0.2,0.4-0.3,0.7-0.3c0,0.3-0.1,0.5,0.1,0.8
	c0.2-0.1,0.3-0.3,0.4-0.4c0.2-0.2,0.4-0.4,0.6-0.6c0.2-0.2,0.5-0.4,0.8-0.4c0,0.1,0,0.2-0.1,0.4c0.1,0,0.3,0,0.3-0.1
	c0.2-0.1,0.4-0.2,0.7-0.3c0.2-0.1,0.4-0.1,0.7-0.1c0,0,0,0,0,0.1c-0.1,0.2-0.2,0.3-0.2,0.5c0,0,0,0,0,0.1c0.1,0,0.2,0,0.3-0.1
	c0.3-0.1,0.6-0.3,0.9-0.4c0.3-0.1,0.6-0.2,0.9-0.1c0,0.1-0.1,0.2-0.2,0.3c0.1,0,0.2,0,0.3-0.1c0.3-0.1,0.6-0.3,1-0.4
	c0.2-0.1,0.4-0.1,0.6,0c0,0.1-0.1,0.2-0.1,0.3c0.2,0,0.4,0.1,0.6,0.1c0.5-0.1,0.9-0.2,1.3-0.3c0.5-0.2,1.1-0.4,1.6-0.7
	c0.1,0,0.2-0.1,0.3-0.1C23,5.3,23,5.4,23,5.4c-0.3,0.6-0.7,1.2-1,1.8c-0.1,0.2-0.1,0.3-0.2,0.5c0,0.1,0,0.2,0.1,0.1
	c0.1-0.1,0.3-0.2,0.4-0.3c0,0.2,0,0.4,0,0.5c-0.1,0.5-0.3,1-0.4,1.5c0,0.2-0.1,0.4-0.1,0.5c0,0.2,0.1,0.2,0.3,0.2
	c0.2-0.1,0.3,0,0.3,0.2c0,0.3-0.1,0.7-0.2,1C22.1,11.6,22,11.8,22,12c-0.1,0.2,0,0.3,0.2,0.3c0.1,0,0.2,0,0.3,0c0.2,0,0.3,0,0.2,0.2
	c-0.1,0.2-0.2,0.4-0.3,0.6c-0.1,0.2-0.2,0.3-0.3,0.5c0,0.1-0.1,0.2,0,0.2c0,0,0.1,0.1,0.2,0.1c0.1,0,0.2,0,0.3-0.1
	c0.1,0.3-0.1,0.6-0.2,0.9c-0.1,0.3-0.3,0.5-0.5,0.8c0.2,0,0.4-0.1,0.6-0.1c0.4,0,0.5,0.1,0.3,0.5c-0.1,0.2-0.2,0.4-0.4,0.6
	c-0.1,0.2-0.1,0.3,0.2,0.3c0.2,0,0.2,0.1,0.1,0.2c-0.1,0.1-0.1,0.3-0.2,0.4c-0.3,0.4-0.6,0.8-0.9,1.1c0.1,0,0.3,0.1,0.4,0.1
	c0.2,0,0.2,0.1,0.1,0.2c-0.1,0.2-0.2,0.3-0.3,0.5c-0.2,0.2-0.4,0.4-0.5,0.6c0.2,0.2,0.2,0.2,0.1,0.4c-0.4,0.4-0.9,0.7-1.5,0.9
	c0,0-0.1,0-0.2,0.1c0.2,0.1,0.3,0.2,0.5,0.3c0.2,0.1,0.2,0.2,0,0.4c-0.5,0.4-1.1,0.6-1.7,0.7c-0.3,0-0.6,0-0.9,0.1
	c0.2,0.1,0.4,0.2,0.6,0.4c0,0,0,0,0,0.1c-0.3,0.1-0.7,0.2-1,0.3c-0.8,0.2-1.7,0.3-2.5,0.1c-0.6-0.2-1.1-0.5-1.5-0.9
	c-0.3-0.3-0.7-0.5-1-0.8c-0.6-0.4-1.2-0.6-1.9-0.5c-0.1,0-0.1,0-0.2,0c0.4-0.4,0.7-0.8,1.3-0.8c0.9,0,1.9,0.1,2.8,0.3
	c0.9,0.2,1.8,0.4,2.7,0.6c0.3,0.1,0.5,0,0.8,0c-1.4-0.1-2.7-0.7-4.1-1c-0.8-0.2-1.5-0.3-2.3-0.3c0,0-0.1,0-0.2,0
	c0.2-0.3,0.4-0.5,0.6-0.7c0.2-0.3,0.5-0.4,0.9-0.5c0.6-0.1,1.2,0,1.9,0.1c0.8,0.1,1.6,0.1,2.3,0.2c0.1,0,0.1,0,0.2,0.1
	c0.7,0.4,1.4,0.5,2.2,0.5c0,0,0.1,0,0.1,0c0,0,0,0,0.1,0c-0.8,0-1.5-0.1-2.2-0.5c0.9-0.1,1.7-0.4,2.5-0.9c-0.5,0.2-1,0.4-1.6,0.6
	c0,0,0,0,0-0.1c0.1-0.2,0.2-0.3,0.3-0.5c0.1-0.2,0.3-0.3,0.4-0.4c-0.1,0.1-0.3,0.2-0.4,0.3c-0.2,0.2-0.3,0.4-0.5,0.6
	c-0.1,0.1-0.2,0.2-0.3,0.2c-0.7,0.1-1.4,0.1-2.1,0c-0.8-0.1-1.7-0.2-2.5-0.3c-0.3,0-0.6,0-0.9,0c0.1-0.2,0.3-0.4,0.4-0.6
	c0.1-0.1,0.1-0.2,0.2-0.3c0.2-0.4,0.5-0.6,0.9-0.7c0.9-0.3,1.9-0.5,2.9-0.6c0.4,0,0.8-0.1,1.2-0.1c0.1,0,0.2,0,0.3,0
	c0.6,0.2,1.1,0.3,1.7,0.2c0.1,0,0.1,0,0.2-0.1c-0.6,0.1-1.3,0-1.8-0.3c0.7-0.2,1.4-0.5,2-0.9c-0.1,0-0.1,0.1-0.2,0.1
	c-0.8,0.5-1.6,0.7-2.5,0.7c-1,0.1-1.9,0.1-2.9,0.3c-0.4,0.1-0.8,0.2-1.3,0.3c0.3-0.4,0.5-0.9,0.8-1.3c0.3-0.5,0.6-1,0.9-1.5
	c0.1-0.1,0.2-0.2,0.3-0.2c1.7-0.3,3.2-1,4.7-2c0,0,0,0,0.1-0.1c-1.5,0.9-3,1.6-4.8,1.8c0.3-0.5,0.6-1,0.9-1.5c0.5-0.7,1-1.4,1.5-2.2
	c0.1-0.2,0.2-0.2,0.4-0.2c0.6,0,1.3-0.2,1.8-0.5c0.1,0,0.1-0.1,0.2-0.1c-0.7,0.3-1.3,0.5-2.1,0.5c0.4-0.5,0.8-1,1.2-1.4
	c0.4-0.4,0.9-0.8,1.4-1.2c-1.7,0.8-2.8,2.2-3.8,3.7c0-0.7,0.2-1.3,0.4-1.8c0.3-0.6,0.6-1.1,0.8-1.6c0,0,0,0-0.1,0.1
	c-0.9,1-1.3,2.2-1.4,3.6c0,0.1,0,0.1-0.1,0.2C15.9,12.1,15.3,13,14.7,14C14.7,14,14.7,14,14.7,14z"/>
<path d="M15.7,12.8c-0.1,0.2-0.2,0.3-0.3,0.5c-0.8,1.3-1.5,2.7-2.4,4c-1,1.7-2.3,3.2-3.8,4.5c-0.5,0.4-1,0.9-1.5,1.3
	c-0.2,0.2-0.3,0.2-0.6,0c-0.2-0.2-0.3-0.3-0.5-0.5c-0.2-0.2-0.1-0.3,0.1-0.4c0.5-0.3,1.1-0.5,1.6-0.8c0.9-0.5,1.7-1.2,2.4-1.9
	c1.6-1.6,2.8-3.5,4-5.4C15.1,13.7,15.4,13.2,15.7,12.8C15.7,12.7,15.7,12.7,15.7,12.8z"/>
<g>
	<g class="st0">
		<path d="M24.4,19.7v-1h1.8V8.1h-1.8v-1h6.2c0.7,0,1.4,0.1,1.9,0.4c0.6,0.3,1,0.6,1.3,1.1c0.3,0.5,0.5,1,0.5,1.6v0.1
			c0,0.6-0.1,1.1-0.3,1.5c-0.2,0.4-0.5,0.7-0.8,0.9s-0.6,0.4-1,0.5v0.2c0.3,0.1,0.6,0.2,1,0.4c0.3,0.2,0.6,0.5,0.8,0.9
			s0.3,0.9,0.3,1.5v0.2c0,0.7-0.2,1.3-0.5,1.8s-0.8,0.9-1.3,1.1c-0.6,0.3-1.2,0.4-1.9,0.4H24.4z M27.4,12.8h3.2c0.8,0,1.5-0.2,2-0.6
			c0.5-0.4,0.7-1,0.7-1.6v-0.2c0-0.7-0.2-1.2-0.7-1.6c-0.5-0.4-1.1-0.6-2-0.6h-3.2V12.8z M27.4,18.7h3.1c0.9,0,1.6-0.2,2-0.6
			c0.5-0.4,0.7-1,0.7-1.7v-0.1c0-0.7-0.2-1.3-0.7-1.7c-0.5-0.4-1.1-0.6-2-0.6h-3.1V18.7z"/>
		<path d="M37,19.7V7.1h1.2v12.6H37z"/>
		<path d="M41.2,19.7V7.1h4.9c0.8,0,1.5,0.1,2.1,0.4c0.6,0.3,1.1,0.6,1.4,1.1c0.3,0.5,0.5,1.1,0.5,1.8v0.2c0,0.9-0.2,1.5-0.6,2
			c-0.4,0.5-0.9,0.8-1.4,1v0.2c0.4,0,0.8,0.1,1.1,0.4s0.4,0.7,0.4,1.2v4.3h-1.2v-4.2c0-0.4-0.1-0.7-0.3-0.9s-0.5-0.3-0.9-0.3h-4.8
			v5.3H41.2z M42.4,13.3H46c0.9,0,1.7-0.2,2.2-0.7c0.5-0.4,0.8-1.1,0.8-1.9v-0.1c0-0.8-0.2-1.4-0.7-1.9C47.7,8.4,47,8.1,46,8.1h-3.7
			V13.3z"/>
		<path d="M57,20c-1.5,0-2.7-0.4-3.5-1.3c-0.9-0.9-1.3-2.1-1.3-3.8V12c0-1.7,0.4-3,1.3-3.8c0.9-0.9,2.1-1.3,3.5-1.3
			c1.5,0,2.6,0.4,3.4,1.2c0.8,0.8,1.2,1.9,1.2,3.4v0.1h-1.2v-0.1c0-1-0.3-1.9-0.8-2.5c-0.5-0.7-1.4-1-2.5-1c-1.2,0-2.1,0.4-2.7,1.1
			s-1,1.7-1,3v2.9c0,1.3,0.3,2.3,1,3s1.6,1.1,2.7,1.1c1.2,0,2-0.3,2.5-1c0.5-0.7,0.8-1.5,0.8-2.5v-0.3h1.2v0.2
			c0,1.4-0.4,2.5-1.2,3.4C59.6,19.5,58.5,20,57,20z"/>
		<path d="M64.1,19.7V7.1h1.2v5.8h6.4V7.1h1.2v12.6h-1.2v-5.8h-6.4v5.8H64.1z"/>
	</g>
</g>
</svg>
