<?xml version="1.0" encoding="utf-8"?>
<!-- Generator: Adobe Illustrator 28.0.0, SVG Export Plug-In . SVG Version: 6.00 Build 0)  -->
<svg version="1.1" id="Layer_1" xmlns="http://www.w3.org/2000/svg" xmlns:xlink="http://www.w3.org/1999/xlink" x="0px" y="0px"
	 viewBox="0 0 26 26" style="enable-background:new 0 0 26 26;" xml:space="preserve">
<style type="text/css">
	.st0{fill:#FFFFFF;}
</style>
<g>
	<g>
		<path class="st0" d="M26.1,26.1c-8.7,0-17.4,0-26.1,0C0,17.4,0,8.7,0,0c8.7,0,17.4,0,26.1,0C26.1,8.7,26.1,17.4,26.1,26.1z
			 M15.2,9.7c1-1.4,2-2.6,3.5-3.3c-0.9,0.6-1.6,1.4-2.4,2.3c0.7,0,1.3-0.2,1.9-0.4c-0.1,0.1-0.1,0.1-0.2,0.1c-0.5,0.3-1,0.4-1.6,0.4
			c-0.2,0-0.3,0.1-0.4,0.2c-0.6,0.8-1.1,1.7-1.7,2.5c-0.2,0.3-0.3,0.5-0.5,0.8c1.6-0.2,3-0.9,4.3-1.6c0,0,0,0,0,0.1
			c-1.3,0.9-2.7,1.5-4.2,1.8c-0.1,0-0.2,0.1-0.3,0.2c-0.5,0.8-1,1.6-1.5,2.5c0,0,0,0.1-0.1,0.1c0.4-0.1,0.8-0.2,1.1-0.3
			c0.9-0.2,1.7-0.2,2.6-0.3c0.7,0,1.5-0.2,2.1-0.6c0.1-0.1,0.2-0.1,0.3-0.2c-0.5,0.4-1.1,0.7-1.8,0.8c0.5,0.2,1.1,0.3,1.7,0.2
			c-0.1,0-0.1,0-0.2,0.1c-0.5,0.1-1.1,0-1.6-0.2c-0.1,0-0.2,0-0.3,0c-0.4,0-0.7,0.1-1.1,0.1c-1,0.1-2.1,0.2-3,0.7
			c-0.1,0-0.2,0.1-0.2,0.2c-0.2,0.3-0.4,0.6-0.6,0.9c0,0,0,0.1-0.1,0.1c0.3,0,0.5,0,0.8,0c0.8,0.1,1.5,0.2,2.3,0.2
			c0.6,0.1,1.3,0.1,1.9,0c0.1,0,0.2-0.1,0.3-0.2c0.2-0.2,0.4-0.5,0.6-0.7c0,0,0.1-0.1,0.1-0.1c-0.3,0.3-0.5,0.5-0.7,0.8
			c0,0,0,0,0,0.1c0.5-0.2,0.9-0.3,1.4-0.5c-0.7,0.4-1.4,0.7-2.3,0.8c0.6,0.3,1.3,0.5,2,0.5c-0.1,0-0.1,0-0.2,0c-0.7,0-1.4-0.1-2-0.4
			c-0.1,0-0.1-0.1-0.2-0.1c-0.6,0-1.2-0.1-1.8-0.1c-0.5,0-1.1-0.1-1.6-0.1c-0.5,0-1,0.1-1.3,0.6c-0.1,0.1-0.2,0.3-0.3,0.4
			c0,0,0,0.1-0.1,0.1c0.1,0,0.1,0,0.1,0c0.6,0,1.2,0,1.8,0.2c0.9,0.2,1.7,0.5,2.6,0.7c0.5,0.1,1,0.2,1.4,0.3c-0.2,0-0.5,0-0.7,0
			c-0.8-0.2-1.6-0.4-2.4-0.6c-0.8-0.2-1.6-0.3-2.5-0.3c-0.2,0-0.4,0-0.6,0.1c-0.2,0.2-0.4,0.4-0.6,0.6c0.1,0,0.1,0,0.1,0
			c0.8-0.1,1.5,0.2,2.1,0.7c0.3,0.2,0.6,0.4,0.8,0.7c0.5,0.4,1.1,0.7,1.8,0.8c0.7,0.1,1.4-0.1,2.1-0.3c0.2-0.1,0.3-0.1,0.5-0.2
			c0,0,0,0,0-0.1c-0.2-0.1-0.3-0.2-0.5-0.3c0.3,0,0.6,0,0.8-0.1c0.5-0.1,1-0.2,1.5-0.5c0.3-0.2,0.3-0.3,0-0.4
			c-0.1-0.1-0.2-0.1-0.4-0.2c0.1,0,0.1,0,0.2-0.1c0.5-0.2,0.9-0.4,1.3-0.8c0.2-0.2,0.2-0.3,0-0.4c0.1-0.1,0.2-0.2,0.3-0.4
			c0.1-0.2,0.3-0.4,0.4-0.6c0.1-0.1,0-0.2-0.1-0.2c-0.1,0-0.3-0.1-0.4-0.1c0,0,0,0,0,0c0,0,0.1,0,0.1,0c0.3-0.3,0.6-0.6,0.8-1
			c0.1-0.1,0.1-0.2,0.2-0.3c0,0,0-0.1-0.1-0.1c-0.3-0.1-0.3-0.1-0.2-0.4c0.1-0.2,0.2-0.4,0.3-0.6c0.1-0.2,0-0.3-0.2-0.3
			c-0.2,0-0.4,0-0.6,0.1c0.3-0.5,0.6-0.9,0.6-1.5c-0.1,0-0.2,0.1-0.3,0.1c-0.1,0-0.2,0-0.2-0.1c0,0,0-0.1,0-0.2
			c0.1-0.2,0.2-0.3,0.2-0.4c0.1-0.2,0.2-0.4,0.2-0.5c0.1-0.2,0-0.2-0.2-0.2c-0.1,0-0.1,0-0.2,0c-0.2,0-0.3-0.1-0.2-0.3
			c0.1-0.2,0.1-0.3,0.2-0.5c0.1-0.3,0.1-0.6,0.2-0.9c0-0.1-0.1-0.2-0.2-0.1c-0.2,0.1-0.3,0-0.3-0.2c0-0.1,0-0.2,0-0.3
			c0.1-0.4,0.2-0.9,0.4-1.3c0-0.2,0.1-0.4,0.1-0.6c0,0,0,0-0.1,0C20.1,6.9,20,7,19.9,7.1c0,0-0.1,0-0.2,0c0,0,0-0.1,0-0.1
			c0.1-0.1,0.1-0.3,0.2-0.4c0.3-0.6,0.6-1.1,0.9-1.6c0-0.1,0.1-0.1,0.1-0.2c-0.5,0.2-1,0.5-1.5,0.6C19,5.5,18.5,5.6,18,5.7
			c-0.2,0-0.3,0-0.5-0.1c0-0.1,0.1-0.1,0.1-0.2c-0.2-0.1-0.4,0-0.6,0c-0.3,0.1-0.6,0.2-0.9,0.4c-0.1,0-0.2,0-0.3,0.1
			C16,5.7,16,5.6,16,5.5c-0.3-0.1-0.6,0-0.9,0.1c-0.3,0.1-0.5,0.2-0.8,0.4c-0.1,0-0.2,0-0.3,0.1c0.1-0.2,0.2-0.4,0.3-0.5
			c-0.1,0-0.2,0-0.2,0c-0.2,0.1-0.5,0.1-0.7,0.2c-0.2,0.1-0.3,0.1-0.4,0.2c0,0-0.1,0-0.2,0c0,0,0-0.1,0-0.1c0,0,0-0.1,0-0.2
			c-0.3,0-0.5,0.2-0.7,0.4c-0.2,0.2-0.4,0.4-0.5,0.6c-0.1,0.1-0.3,0.2-0.4,0.4C10.9,6.7,11,6.5,11,6.2c-0.3,0-0.5,0.1-0.6,0.3
			C10.2,6.6,10.1,6.8,9.9,7C9.8,7.1,9.7,7.1,9.6,7.2c0-0.1,0-0.2,0-0.3C9.2,7,9,7.2,8.8,7.5C8.7,7.8,8.5,8.1,8.4,8.4
			C8.3,8.5,8.1,8.7,8,8.9c0,0,0,0-0.1,0C7.9,8.6,7.8,8.4,7.7,8.2c-0.6,0.3-0.6,1-0.9,1.5C6.8,9.5,6.7,9.3,6.6,9.2
			C6.1,9.9,6,10.8,5.9,11.7c-0.1-0.2-0.3-0.4-0.4-0.6c0,0,0,0-0.1,0c-0.1,0.2-0.2,0.4-0.2,0.6c-0.2,1-0.1,1.9,0.2,2.8
			c0.3,0.8,0.7,1.4,1.4,1.9c0.4,0.3,0.7,0.5,1.1,0.8c0.4,0.3,0.9,0.6,1.1,1.1c0.3-0.2,0.4-0.5,0.5-0.8c0-0.4-0.1-0.8-0.2-1.1
			c-0.3-0.8-0.8-1.5-1.2-2.2C8.1,14,8.1,14,8,14c-0.5-0.2-1-0.5-1.4-0.9c-0.1-0.1-0.2-0.2-0.4-0.4c0.5,0.4,1.1,0.8,1.7,1
			c-0.4-0.7-0.7-1.4-0.7-2.3c0,0,0,0,0,0c0,0.6,0.2,1.2,0.5,1.7c0.3,0.6,0.7,1.2,1.1,1.8c0.4,0.6,0.7,1.2,0.8,1.9c0,0.2,0,0.4,0,0.7
			c0.4-0.5,0.8-0.9,1.1-1.4c0,0,0-0.1,0-0.2c0-0.5,0-1-0.1-1.5c-0.2-0.9-0.4-1.9-0.6-2.8c0,0-0.1-0.1-0.1-0.1
			c-0.6-0.3-1-0.9-1.1-1.6c0-0.1,0-0.3-0.1-0.4c0.2,0.7,0.5,1.4,1.3,1.8c0-0.3-0.1-0.5-0.1-0.7c0-0.2,0-0.4,0-0.7c0-0.2,0-0.5,0-0.7
			c0-0.2,0.1-0.4,0.1-0.6c0,0.1,0,0.1,0,0.2c-0.1,1.1,0,2.2,0.3,3.3c0.2,0.8,0.4,1.7,0.6,2.5c0.1,0.3,0.1,0.6,0.1,0.9c0,0,0,0,0,0
			c0,0,0,0,0-0.1c0.6-0.9,1.2-1.8,1.8-2.6c0-0.1,0-0.1,0-0.2c-0.1-0.7-0.1-1.3-0.2-2c-0.1-0.8-0.2-1.7,0-2.5c0-0.2,0.1-0.3,0.1-0.5
			c0-0.1,0.1-0.3,0.1-0.4c0,0,0,0,0,0c-0.4,1.7-0.1,3.4,0.2,5.2c0,0,0.1-0.1,0.1-0.1c0.5-0.8,1-1.6,1.6-2.5C15,10.1,15,10,15,9.9
			c0-0.7,0.2-1.4,0.5-2C15.7,7.4,16,7,16.4,6.6c-0.3,0.5-0.5,1-0.8,1.5C15.4,8.6,15.2,9.1,15.2,9.7z M14.2,11.5
			C14.2,11.5,14.2,11.5,14.2,11.5c-0.3,0.4-0.6,0.9-0.9,1.3c-1.1,1.7-2.2,3.4-3.6,4.8c-0.6,0.7-1.3,1.3-2.2,1.7
			c-0.5,0.2-1,0.5-1.4,0.7C6,20.2,6,20.3,6.1,20.5c0.1,0.2,0.3,0.3,0.4,0.4c0.2,0.2,0.3,0.2,0.5,0c0.5-0.4,0.9-0.8,1.4-1.2
			c1.4-1.2,2.5-2.6,3.4-4.1c0.7-1.2,1.4-2.4,2.1-3.6C14.1,11.8,14.2,11.7,14.2,11.5z"/>
		<path d="M15.2,9.7c0-0.6,0.2-1.2,0.4-1.7c0.2-0.5,0.5-1,0.8-1.5C16,7,15.7,7.4,15.5,7.9c-0.3,0.6-0.5,1.3-0.5,2
			c0,0.1,0,0.1-0.1,0.2c-0.5,0.8-1,1.6-1.6,2.5c0,0,0,0.1-0.1,0.1c-0.3-1.7-0.6-3.4-0.2-5.2c0,0,0,0,0,0C13,7.6,13,7.8,13,7.9
			c0,0.2-0.1,0.3-0.1,0.5c-0.1,0.8-0.1,1.7,0,2.5c0.1,0.7,0.1,1.3,0.2,2c0,0.1,0,0.2,0,0.2c-0.6,0.9-1.2,1.8-1.8,2.6c0,0,0,0,0,0.1
			c0,0,0,0,0,0c0-0.3,0-0.6-0.1-0.9c-0.2-0.8-0.4-1.7-0.6-2.5c-0.3-1.1-0.4-2.2-0.3-3.3c0-0.1,0-0.1,0-0.2c0,0.2-0.1,0.4-0.1,0.6
			c0,0.2,0,0.5,0,0.7c0,0.2,0,0.4,0,0.7c0,0.2,0,0.4,0.1,0.7c-0.7-0.4-1-1.1-1.3-1.8c0,0.1,0,0.3,0.1,0.4c0.2,0.7,0.5,1.2,1.1,1.6
			c0,0,0.1,0.1,0.1,0.1c0.2,0.9,0.5,1.8,0.6,2.8c0.1,0.5,0.1,1,0.1,1.5c0,0.1,0,0.1,0,0.2c-0.4,0.4-0.7,0.9-1.1,1.4
			c0-0.3,0-0.5,0-0.7c-0.1-0.7-0.4-1.3-0.8-1.9c-0.4-0.6-0.7-1.2-1.1-1.8c-0.3-0.5-0.5-1.1-0.5-1.7c0,0,0,0,0,0
			c0,0.8,0.3,1.5,0.7,2.3c-0.7-0.2-1.2-0.6-1.7-1c0.1,0.1,0.2,0.2,0.4,0.4C7,13.5,7.5,13.8,8,14c0,0,0.1,0,0.1,0.1
			c0.4,0.7,0.9,1.4,1.2,2.2c0.1,0.4,0.2,0.7,0.2,1.1c0,0.3-0.1,0.6-0.5,0.8c-0.2-0.5-0.7-0.8-1.1-1.1c-0.4-0.2-0.8-0.5-1.1-0.8
			c-0.7-0.5-1.1-1.1-1.4-1.9c-0.3-0.9-0.5-1.9-0.2-2.8c0-0.2,0.1-0.4,0.2-0.6c0,0,0,0,0.1,0c0.1,0.2,0.2,0.4,0.4,0.6
			C6,10.8,6.1,9.9,6.6,9.2c0.1,0.2,0.2,0.3,0.3,0.5c0.2-0.6,0.3-1.2,0.9-1.5c0.1,0.3,0.1,0.5,0.2,0.7c0,0,0,0,0.1,0
			c0.1-0.2,0.2-0.3,0.3-0.5c0.2-0.3,0.3-0.6,0.5-0.9C9,7.2,9.2,7,9.5,6.9c0,0.1,0,0.2,0,0.3C9.7,7.1,9.8,7.1,9.9,7
			c0.2-0.2,0.3-0.3,0.5-0.5c0.2-0.2,0.4-0.3,0.6-0.3c0,0.2-0.1,0.5,0.1,0.7c0.1-0.1,0.3-0.2,0.4-0.4c0.2-0.2,0.4-0.4,0.5-0.6
			c0.2-0.2,0.4-0.3,0.7-0.4c0,0.1,0,0.1,0,0.2c0,0.1,0,0.1,0,0.1c0,0,0.1,0,0.2,0c0.1-0.1,0.3-0.2,0.4-0.2c0.2-0.1,0.5-0.2,0.7-0.2
			c0.1,0,0.1,0,0.2,0c-0.1,0.2-0.2,0.3-0.3,0.5c0.1,0,0.2,0,0.3-0.1c0.3-0.1,0.5-0.3,0.8-0.4c0.3-0.1,0.5-0.2,0.9-0.1
			c0,0.1-0.1,0.2-0.1,0.3c0.1,0,0.2,0,0.3-0.1c0.3-0.1,0.6-0.2,0.9-0.4c0.2-0.1,0.4-0.1,0.6,0c0,0.1-0.1,0.1-0.1,0.2
			c0.2,0.1,0.3,0.1,0.5,0.1c0.5-0.1,1-0.2,1.4-0.3c0.5-0.2,1-0.4,1.5-0.6c0,0.1-0.1,0.1-0.1,0.2c-0.3,0.5-0.6,1.1-0.9,1.6
			c-0.1,0.1-0.1,0.3-0.2,0.4c0,0,0,0.1,0,0.1c0.1,0,0.1,0,0.2,0C20,7,20.1,6.9,20.2,6.9c0,0,0,0,0.1,0c0,0.2,0,0.4-0.1,0.6
			c-0.1,0.5-0.2,0.9-0.4,1.3c0,0.1,0,0.2,0,0.3c0,0.2,0.1,0.3,0.3,0.2c0.1,0,0.2,0,0.2,0.1c0,0.3-0.1,0.6-0.2,0.9
			c0,0.2-0.1,0.3-0.2,0.5c-0.1,0.2,0,0.3,0.2,0.3c0.1,0,0.1,0,0.2,0c0.2,0,0.3,0,0.2,0.2c-0.1,0.2-0.1,0.4-0.2,0.5
			c-0.1,0.2-0.2,0.3-0.2,0.4c0,0.1-0.1,0.2,0,0.2c0.1,0,0.1,0.1,0.2,0.1c0.1,0,0.2,0,0.3-0.1c0,0.6-0.4,1-0.6,1.5
			c0.2,0,0.4-0.1,0.6-0.1c0.2,0,0.3,0.1,0.2,0.3c-0.1,0.2-0.2,0.4-0.3,0.6c-0.2,0.3-0.1,0.3,0.2,0.4c0,0,0.1,0.1,0.1,0.1
			c0,0.1-0.1,0.2-0.2,0.3c-0.3,0.3-0.5,0.6-0.8,1c0,0-0.1,0-0.1,0c0,0,0,0,0,0c0.1,0,0.3,0.1,0.4,0.1c0.2,0,0.2,0.1,0.1,0.2
			c-0.1,0.2-0.3,0.4-0.4,0.6c-0.1,0.1-0.2,0.3-0.3,0.4c0.2,0.2,0.2,0.2,0,0.4c-0.4,0.3-0.8,0.6-1.3,0.8c0,0-0.1,0-0.2,0.1
			c0.1,0.1,0.3,0.1,0.4,0.2c0.3,0.2,0.3,0.2,0,0.4c-0.4,0.3-0.9,0.5-1.5,0.5c-0.3,0-0.5,0-0.8,0.1c0.2,0.1,0.4,0.2,0.5,0.3
			c0,0,0,0,0,0.1c-0.2,0.1-0.3,0.1-0.5,0.2c-0.7,0.2-1.4,0.4-2.1,0.3c-0.7-0.1-1.3-0.3-1.8-0.8c-0.3-0.2-0.6-0.4-0.8-0.7
			c-0.6-0.5-1.3-0.7-2.1-0.7c0,0-0.1,0-0.1,0c0.2-0.2,0.4-0.5,0.6-0.6c0.2-0.1,0.4-0.1,0.6-0.1c0.8-0.1,1.7,0.1,2.5,0.3
			c0.8,0.2,1.6,0.4,2.4,0.6c0.2,0.1,0.5,0,0.7,0c-0.5-0.1-1-0.2-1.4-0.3c-0.9-0.2-1.7-0.5-2.6-0.7c-0.6-0.1-1.2-0.2-1.8-0.2
			c0,0-0.1,0-0.1,0c0-0.1,0.1-0.1,0.1-0.1c0.1-0.1,0.2-0.2,0.3-0.4c0.3-0.5,0.7-0.6,1.3-0.6c0.5,0,1.1,0.1,1.6,0.1
			c0.6,0,1.2,0.1,1.8,0.1c0.1,0,0.2,0,0.2,0.1c0.6,0.3,1.3,0.5,2,0.4c0.1,0,0.1,0,0.2,0c-0.7,0-1.3-0.1-2-0.5
			c0.8-0.1,1.6-0.3,2.3-0.8c-0.5,0.2-0.9,0.3-1.4,0.5c0,0,0,0,0-0.1c0.1-0.3,0.4-0.6,0.7-0.8c0,0-0.1,0-0.1,0.1
			c-0.2,0.2-0.4,0.4-0.6,0.7c-0.1,0.1-0.1,0.2-0.3,0.2c-0.6,0.1-1.3,0.1-1.9,0c-0.8-0.1-1.5-0.2-2.3-0.2c-0.3,0-0.5,0-0.8,0
			c0,0,0-0.1,0.1-0.1c0.2-0.3,0.4-0.6,0.6-0.9c0.1-0.1,0.1-0.2,0.2-0.2c1-0.4,2-0.6,3-0.7c0.4,0,0.7-0.1,1.1-0.1c0.1,0,0.2,0,0.3,0
			c0.5,0.2,1,0.3,1.6,0.2c0.1,0,0.1,0,0.2-0.1c-0.6,0.1-1.1,0-1.7-0.2c0.6-0.2,1.2-0.4,1.8-0.8c-0.1,0.1-0.2,0.1-0.3,0.2
			c-0.7,0.4-1.4,0.5-2.1,0.6c-0.9,0.1-1.7,0-2.6,0.3c-0.4,0.1-0.8,0.2-1.1,0.3c0,0,0-0.1,0.1-0.1c0.5-0.8,1-1.6,1.5-2.5
			c0.1-0.1,0.1-0.2,0.3-0.2c1.5-0.3,2.9-0.9,4.2-1.8c0,0,0,0,0-0.1c-1.3,0.8-2.7,1.4-4.3,1.6c0.2-0.3,0.3-0.6,0.5-0.8
			c0.6-0.8,1.1-1.7,1.7-2.5c0.1-0.1,0.2-0.2,0.4-0.2c0.6,0,1.1-0.1,1.6-0.4c0.1,0,0.1-0.1,0.2-0.1c-0.6,0.2-1.2,0.5-1.9,0.4
			c0.7-0.9,1.5-1.7,2.4-2.3C17.2,7.1,16.2,8.4,15.2,9.7z"/>
		<path d="M14.2,11.5c-0.1,0.1-0.2,0.3-0.2,0.4c-0.7,1.2-1.4,2.4-2.1,3.6c-0.9,1.5-2.1,2.9-3.4,4.1c-0.5,0.4-0.9,0.8-1.4,1.2
			c-0.2,0.2-0.3,0.2-0.5,0c-0.2-0.1-0.3-0.3-0.4-0.4C6,20.3,6,20.2,6.2,20.1c0.5-0.2,1-0.5,1.4-0.7c0.8-0.4,1.5-1,2.2-1.7
			c1.4-1.5,2.5-3.1,3.6-4.8C13.7,12.4,13.9,11.9,14.2,11.5C14.2,11.5,14.2,11.5,14.2,11.5z"/>
	</g>
</g>
</svg>
