<?xml version="1.0" encoding="utf-8"?>
<!-- Generator: Adobe Illustrator 28.0.0, SVG Export Plug-In . SVG Version: 6.00 Build 0)  -->
<svg version="1.1" id="Layer_1" xmlns="http://www.w3.org/2000/svg" xmlns:xlink="http://www.w3.org/1999/xlink" x="0px" y="0px"
	 viewBox="0 0 75 26" style="enable-background:new 0 0 75 26;" xml:space="preserve">
<style type="text/css">
	.st0{enable-background:new    ;}
	.st1{fill:#FFFFFF;}
</style>
<g>
	<g class="st0">
		<path d="M24.4,19.7v-1h1.8V8.1h-1.8v-1h6.2c0.7,0,1.4,0.1,1.9,0.4c0.6,0.3,1,0.6,1.3,1.1c0.3,0.5,0.5,1,0.5,1.6v0.1
			c0,0.6-0.1,1.1-0.3,1.5c-0.2,0.4-0.5,0.7-0.8,0.9s-0.6,0.4-1,0.5v0.2c0.3,0.1,0.6,0.2,1,0.4c0.3,0.2,0.6,0.5,0.8,0.9
			s0.3,0.9,0.3,1.5v0.2c0,0.7-0.2,1.3-0.5,1.8s-0.8,0.9-1.3,1.1c-0.6,0.3-1.2,0.4-1.9,0.4H24.4z M27.4,12.8h3.2c0.8,0,1.5-0.2,2-0.6
			c0.5-0.4,0.7-1,0.7-1.6v-0.2c0-0.7-0.2-1.2-0.7-1.6c-0.5-0.4-1.1-0.6-2-0.6h-3.2V12.8z M27.4,18.7h3.1c0.9,0,1.6-0.2,2-0.6
			c0.5-0.4,0.7-1,0.7-1.7v-0.1c0-0.7-0.2-1.3-0.7-1.7c-0.5-0.4-1.1-0.6-2-0.6h-3.1V18.7z"/>
		<path d="M37,19.7V7.1h1.2v12.6H37z"/>
		<path d="M41.2,19.7V7.1h4.9c0.8,0,1.5,0.1,2.1,0.4c0.6,0.3,1.1,0.6,1.4,1.1c0.3,0.5,0.5,1.1,0.5,1.8v0.2c0,0.9-0.2,1.5-0.6,2
			c-0.4,0.5-0.9,0.8-1.4,1v0.2c0.4,0,0.8,0.1,1.1,0.4s0.4,0.7,0.4,1.2v4.3h-1.2v-4.2c0-0.4-0.1-0.7-0.3-0.9s-0.5-0.3-0.9-0.3h-4.8
			v5.3H41.2z M42.4,13.3H46c0.9,0,1.7-0.2,2.2-0.7c0.5-0.4,0.8-1.1,0.8-1.9v-0.1c0-0.8-0.2-1.4-0.7-1.9C47.7,8.4,47,8.1,46,8.1h-3.7
			V13.3z"/>
		<path d="M57,20c-1.5,0-2.7-0.4-3.5-1.3c-0.9-0.9-1.3-2.1-1.3-3.8V12c0-1.7,0.4-3,1.3-3.8c0.9-0.9,2.1-1.3,3.5-1.3
			c1.5,0,2.6,0.4,3.4,1.2c0.8,0.8,1.2,1.9,1.2,3.4v0.1h-1.2v-0.1c0-1-0.3-1.9-0.8-2.5c-0.5-0.7-1.4-1-2.5-1c-1.2,0-2.1,0.4-2.7,1.1
			s-1,1.7-1,3v2.9c0,1.3,0.3,2.3,1,3s1.6,1.1,2.7,1.1c1.2,0,2-0.3,2.5-1c0.5-0.7,0.8-1.5,0.8-2.5v-0.3h1.2v0.2
			c0,1.4-0.4,2.5-1.2,3.4C59.6,19.5,58.5,20,57,20z"/>
		<path d="M64.1,19.7V7.1h1.2v5.8h6.4V7.1h1.2v12.6h-1.2v-5.8h-6.4v5.8H64.1z"/>
	</g>
</g>
<g>
	<path class="st1" d="M5,5.8c-0.9,0.5-1,1.4-1.3,2.3c0-0.1-0.1-0.1-0.1-0.2C3.5,7.7,3.4,7.5,3.3,7.3c-0.8,1.1-0.9,2.4-1,3.8
		c-0.2-0.3-0.4-0.6-0.6-0.9c-0.1,0.3-0.2,0.5-0.3,0.7c-0.4,1.2-0.3,2.3,0,3.5c0.3,1.5,1,2.7,2.2,3.7c0.6,0.5,1.3,0.9,1.9,1.3
		c0.6,0.4,1.2,0.8,1.5,1.6c0.3-0.3,0.6-0.5,0.7-0.9c0.1-0.7,0-1.4-0.3-2.1c-0.5-1.1-1.2-2.1-1.7-3.2c0-0.1-0.1-0.1-0.2-0.1
		c-0.8-0.3-1.5-0.7-2.2-1.3C3.2,13.1,3.1,13,3,13c-0.1-0.1-0.1-0.2-0.2-0.2c0.8,0.7,1.6,1.2,2.6,1.5c-0.6-1.1-1.1-2.1-1.1-3.2
		c0.2,1.2,0.7,2.3,1.3,3.3c0.4,0.6,0.8,1.2,1.1,1.8C7.4,17,7.9,17.9,8,19c0,0.3,0,0.6,0.1,0.9c0.6-0.7,1.1-1.3,1.6-1.9
		c0.1-0.1,0.2-0.3,0.2-0.5c0.1-0.8,0-1.7-0.2-2.5c-0.3-1.3-0.6-2.5-0.9-3.8c0-0.1-0.1-0.2-0.2-0.2c-0.9-0.5-1.5-1.4-1.7-2.4
		c0-0.1,0-0.2,0-0.2c0-0.1,0-0.1,0-0.2c0.3,1.1,0.8,2,1.9,2.7c-0.2-1.4-0.3-2.7,0.1-4c0,0.2,0,0.4,0,0.6C8.6,9,8.8,10.5,9.2,12.1
		c0.3,1.3,0.6,2.5,0.9,3.8c0.1,0.4,0.1,0.9,0.2,1.3c0,0,0.1-0.1,0.1-0.1c0.9-1.3,1.8-2.6,2.7-4c0-0.1,0.1-0.2,0.1-0.2
		C13,12.3,13,11.7,12.9,11c-0.1-1.2-0.3-2.3-0.3-3.5c0-0.9,0.2-1.8,0.5-2.7c-0.5,2.6-0.1,5.2,0.3,7.8c0.1-0.1,0.1-0.2,0.2-0.3
		c0.7-1.1,1.5-2.3,2.2-3.4c0.1-0.1,0.1-0.3,0.2-0.4c0.1-1.1,0.4-2.2,0.9-3.2c0.2-0.3,0.3-0.6,0.5-0.9c0.2-0.3,0.4-0.5,0.6-0.8
		c-0.8,1.4-1.6,2.8-1.7,4.6c0.5-0.7,1-1.3,1.5-1.9c0.5-0.6,1.1-1.2,1.7-1.7c0.6-0.5,1.2-1,1.9-1.3c-1.3,0.9-2.4,2.1-3.4,3.4
		c1,0.1,1.9-0.2,2.8-0.6c-0.1,0.1-0.2,0.1-0.3,0.2c-0.7,0.4-1.5,0.5-2.3,0.6c-0.3,0-0.5,0.1-0.6,0.3c-1,1.5-2,3-3,4.6
		c-0.1,0.1-0.2,0.3-0.3,0.4c2.3-0.3,4.2-1.2,6.2-2.2c0,0.1-0.1,0.1-0.1,0.1c-1.9,1.2-3.9,2-6,2.4c-0.2,0-0.3,0.1-0.4,0.3
		c-0.7,1.2-1.5,2.5-2.2,3.7c0,0-0.1,0.1-0.1,0.2c0.6-0.2,1.2-0.3,1.7-0.5c1.3-0.3,2.6-0.3,3.9-0.4c1.1-0.1,2.2-0.3,3.2-0.9
		c0.1,0,0.1-0.1,0.2-0.1c-0.7,0.6-1.6,0.9-2.5,1.1c0.8,0.4,1.6,0.4,2.4,0.4c-0.8,0.1-1.6,0-2.4-0.3c-0.2-0.1-0.3-0.1-0.5-0.1
		c-0.8,0.1-1.5,0.1-2.3,0.2c-1.4,0.1-2.7,0.4-3.9,1c-0.1,0-0.2,0.1-0.2,0.1c-0.4,0.6-0.8,1.2-1.2,1.8c0,0,0,0,0.1,0
		c1.2-0.1,2.4,0.1,3.6,0.2c1.1,0.2,2.3,0.3,3.4,0.1c0.4,0,0.7-0.1,0.9-0.5c0.2-0.4,0.6-0.7,1-0.9c-0.8,0.8-0.9,1-1,1.3
		c0.7-0.3,1.4-0.5,2.1-0.7c-1,0.7-2.2,1-3.4,1.1c0.9,0.5,1.8,0.7,2.8,0.7c-1.1,0.1-2.1-0.1-3.1-0.6c-0.1,0-0.2-0.1-0.3-0.1
		c-1.2-0.1-2.4-0.2-3.5-0.3c-0.9-0.1-1.7-0.1-2.6,0c-0.3,0.1-0.5,0.2-0.7,0.4c-0.2,0.3-0.5,0.6-0.7,1c-0.1,0.1-0.1,0.1-0.2,0.2
		c1.7-0.1,3.3,0.3,4.9,0.7c1.3,0.4,2.6,0.8,4,0.9c-0.3,0-0.7,0-1,0c-1-0.2-2-0.5-3-0.7c-1.5-0.4-2.9-0.6-4.5-0.6
		c-0.9,0-1.2,0.6-1.7,1.1c1.3-0.1,2.3,0.3,3.3,1.1c0.3,0.3,0.6,0.5,1,0.8c0.6,0.5,1.2,0.9,2,1.1c1.2,0.4,2.3,0.2,3.5-0.1
		c0.5-0.1,0.9-0.3,1.4-0.4c0,0,0-0.1,0-0.1c-0.3-0.2-0.5-0.3-0.7-0.4c0.6-0.1,1.2-0.1,1.7-0.3c0.6-0.2,1.1-0.4,1.6-0.7
		c0.4-0.2,0.4-0.4,0-0.6c-0.2-0.1-0.4-0.2-0.6-0.3c0.1,0,0.2-0.1,0.3-0.1c0.7-0.3,1.4-0.7,2-1.2c0.2-0.2,0.2-0.3-0.1-0.5
		c0.2-0.2,0.4-0.4,0.5-0.6c0.2-0.3,0.4-0.5,0.6-0.8c0.1-0.3,0.1-0.3-0.2-0.4c-0.2,0-0.4-0.1-0.6-0.1c0.3-0.3,0.5-0.5,0.7-0.8
		c0.3-0.4,0.5-0.8,0.8-1.2c0.1-0.1,0.1-0.3-0.2-0.3c-0.3,0-0.4-0.1-0.2-0.4c0-0.1,0.1-0.2,0.2-0.3c0.1-0.3,0.3-0.5,0.4-0.8
		c0.1-0.4,0-0.5-0.4-0.5c-0.3,0-0.6,0.1-0.9,0.1c0.4-0.7,0.9-1.4,1-2.3c-0.2,0-0.3,0.1-0.5,0.1c-0.3,0-0.4-0.1-0.3-0.3
		c0.2-0.3,0.4-0.7,0.5-1c0.1-0.2,0.1-0.4,0.2-0.5c0-0.2-0.1-0.3-0.3-0.3c-0.1,0-0.2,0-0.3,0c-0.3,0-0.4-0.1-0.3-0.4
		c0.1-0.3,0.2-0.5,0.3-0.8c0.1-0.4,0.2-0.9,0.3-1.3c0-0.3-0.1-0.4-0.4-0.3c-0.2,0.1-0.3,0-0.3-0.2c0-0.2,0-0.5,0.1-0.7
		c0.2-0.7,0.4-1.3,0.5-2c0.1-0.2,0-0.4,0.1-0.7c-0.2,0.1-0.4,0.2-0.5,0.3c-0.1,0-0.2,0-0.3,0c0-0.1,0-0.2,0-0.2
		c0.1-0.2,0.1-0.4,0.2-0.6c0.5-0.8,0.9-1.6,1.4-2.4c0.1-0.1,0.1-0.2,0.2-0.3c-0.4,0.1-0.8,0.3-1.2,0.5c-1,0.4-1.9,0.8-3,0.9
		c-0.3,0-0.6,0-0.9-0.1c0-0.1,0.1-0.2,0.2-0.4c-0.3,0-0.6,0-0.9,0.1c-0.4,0.1-0.9,0.3-1.3,0.5c-0.1,0-0.2,0.1-0.4,0.1
		c0.1-0.2,0.1-0.3,0.2-0.5c-0.4-0.1-0.8,0-1.1,0.1c-0.4,0.2-0.9,0.4-1.3,0.6c-0.2,0.1-0.3,0.1-0.5,0.1c0,0,0,0,0-0.1
		c0.1-0.2,0.2-0.5,0.3-0.7c0,0,0-0.1-0.1-0.1c-0.3,0.1-0.6,0.1-0.9,0.2c-0.3,0.1-0.6,0.3-0.9,0.4c-0.1,0.1-0.3,0.1-0.5,0.1
		c0-0.2,0.1-0.4,0.1-0.5c0,0-0.1,0-0.1-0.1c-0.3,0.1-0.6,0.3-0.8,0.5c-0.4,0.3-0.7,0.7-1,1.1c-0.2,0.2-0.4,0.4-0.6,0.5
		C9.8,3.6,9.9,3.3,9.9,2.9C9.6,2.9,9.3,3,9,3.3C8.8,3.5,8.5,3.8,8.3,4C8.1,4.1,8,4.2,7.8,4.4c0-0.2-0.1-0.3-0.1-0.5c0,0-0.1,0-0.1,0
		C7.4,4.1,7.1,4.3,6.9,4.6C6.6,5,6.4,5.5,6.1,5.9c-0.2,0.3-0.4,0.6-0.6,1c0,0-0.1,0-0.1,0C5.3,6.5,5.2,6.2,5,5.8z M14.9,10.6
		C14.9,10.6,14.9,10.5,14.9,10.6c-0.5,0.6-0.9,1.3-1.3,1.9c-1.7,2.6-3.3,5.3-5.5,7.5c-0.9,0.9-1.8,1.8-2.9,2.4
		c-0.8,0.4-1.7,0.8-2.5,1.2c-0.3,0.2-0.4,0.3-0.1,0.6c0.2,0.2,0.4,0.5,0.7,0.7c0.3,0.3,0.5,0.3,0.7,0c0.6-0.5,1.2-1.1,1.8-1.6
		c1.3-1.2,2.6-2.5,3.7-4c1.4-1.9,2.6-3.9,3.7-5.9C13.9,12.5,14.4,11.5,14.9,10.6z"/>
	<path d="M14.9,10.6c-0.5,0.9-1.1,1.9-1.6,2.8c-1.1,2-2.3,4-3.7,5.9c-1.1,1.5-2.4,2.7-3.7,4c-0.6,0.6-1.2,1.1-1.8,1.6
		c-0.3,0.2-0.5,0.2-0.7,0c-0.2-0.2-0.5-0.4-0.7-0.7c-0.2-0.3-0.2-0.4,0.1-0.6c0.8-0.4,1.7-0.8,2.5-1.2c1.1-0.6,2-1.5,2.9-2.4
		c2.2-2.2,3.9-4.9,5.5-7.5C14,11.9,14.5,11.2,14.9,10.6C14.9,10.5,14.9,10.6,14.9,10.6z"/>
</g>
<g id="XMLID_00000176733811337264631680000003464733786449080993_">
	<g>
		<path d="M24.8,0.6c0,0.1-0.1,0.2-0.2,0.3c-0.5,0.8-0.9,1.6-1.4,2.4C23.1,3.5,23,3.8,22.9,4c0,0.1,0,0.2,0,0.2c0.1,0,0.2,0,0.2,0
			c0.2-0.1,0.3-0.2,0.5-0.3c0,0.2,0,0.5,0,0.7c-0.2,0.7-0.4,1.3-0.5,2c0,0.2-0.1,0.5,0,0.7c0,0.2,0.1,0.3,0.3,0.2
			c0.3-0.1,0.4-0.1,0.4,0.3c-0.1,0.4-0.2,0.9-0.3,1.3c-0.1,0.3-0.2,0.5-0.3,0.8c-0.1,0.3,0,0.4,0.3,0.4c0.1,0,0.2,0,0.3-0.1
			c0.2,0,0.3,0,0.3,0.3c0,0.2-0.1,0.4-0.2,0.5c-0.2,0.3-0.4,0.7-0.5,1c-0.1,0.2,0,0.4,0.2,0.3c0.1,0,0.3-0.1,0.5-0.1
			c0,0.9-0.5,1.6-1,2.3c0.3,0,0.6-0.1,0.9-0.1c0.4,0,0.5,0.1,0.4,0.5c-0.1,0.3-0.3,0.5-0.4,0.8c0,0.1-0.1,0.2-0.2,0.3
			c-0.1,0.3-0.1,0.4,0.2,0.4c0.3,0,0.2,0.1,0.2,0.3c-0.2,0.4-0.5,0.8-0.8,1.2c-0.2,0.3-0.5,0.5-0.7,0.8c0.2,0,0.4,0.1,0.6,0.1
			c0.3,0.1,0.4,0.1,0.2,0.4c-0.2,0.3-0.4,0.6-0.6,0.8c-0.2,0.2-0.4,0.4-0.5,0.6c0.3,0.2,0.3,0.3,0.1,0.5c-0.5,0.6-1.2,0.9-2,1.2
			c-0.1,0-0.1,0-0.3,0.1c0.2,0.1,0.4,0.2,0.6,0.3c0.4,0.2,0.5,0.4,0,0.6c-0.5,0.3-1.1,0.5-1.6,0.7c-0.5,0.2-1.1,0.2-1.7,0.3
			c0.2,0.1,0.5,0.3,0.7,0.5c0,0,0,0.1,0,0.1c-0.5,0.1-0.9,0.3-1.4,0.4c-1.1,0.3-2.3,0.4-3.5,0.1c-0.8-0.2-1.4-0.7-2-1.1
			c-0.3-0.3-0.6-0.5-1-0.8c-1-0.8-2-1.2-3.3-1.1c0.5-0.5,0.9-1.1,1.7-1.1c1.5-0.1,3,0.2,4.5,0.6c1,0.2,2,0.5,3,0.7
			c0.3,0.1,0.7,0,1,0c-1.4-0.1-2.7-0.6-4-0.9c-1.6-0.4-3.1-0.8-4.9-0.8c0.1-0.1,0.1-0.2,0.2-0.2c0.2-0.3,0.5-0.6,0.7-1
			c0.2-0.2,0.4-0.4,0.7-0.4c0.9-0.2,1.7-0.1,2.6,0c1.2,0.1,2.4,0.2,3.5,0.3c0.1,0,0.2,0,0.3,0.1c1,0.5,2,0.7,3.1,0.6
			c-1-0.1-1.9-0.2-2.8-0.7c1.2-0.1,2.3-0.5,3.4-1.1c-0.7,0.2-1.4,0.5-2.1,0.8c0.1-0.4,0.1-0.5,1-1.3l0.2-1.7c0.4,0.1,0.9,0.1,1.3,0
			c-0.8,0-1.6,0-2.4-0.4c0.9-0.2,1.8-0.5,2.5-1.1c-0.1,0-0.1,0-0.2,0.1c-1,0.6-2.1,0.8-3.2,0.9c-1.3,0.1-2.6,0.1-3.9,0.4
			c-0.6,0.1-1.2,0.3-1.7,0.5c0,0,0.1-0.1,0.1-0.1c0.7-1.2,1.5-2.5,2.2-3.7c0.1-0.2,0.2-0.2,0.4-0.3c2.2-0.4,4.2-1.3,6-2.4
			c0,0,0.1,0,0.1-0.1c-1.9,1-3.9,2-6.2,2.2c0.1-0.2,0.2-0.3,0.2-0.4c1-1.5,2-3,3-4.5c0.2-0.2,0.4-0.3,0.6-0.3c0.8,0,1.6-0.2,2.3-0.6
			c0.1-0.1,0.2-0.1,0.3-0.2c-0.9,0.3-1.8,0.6-2.8,0.6c1-1.3,2.1-2.4,3.4-3.4c-0.2,0.1-0.4,0.2-0.5,0.2l-0.2-1.4c1-0.1,2-0.5,2.9-0.9
			C23.9,1,24.3,0.8,24.8,0.6z"/>
		<path d="M20.6,2.1l0.2,1.4c-0.5,0.3-1,0.6-1.4,1c-0.6,0.6-1.1,1.1-1.7,1.7s-1,1.2-1.5,1.9c0.1-1.8,0.9-3.2,1.7-4.6
			c-0.2,0.3-0.4,0.5-0.6,0.8c-0.2,0.3-0.4,0.6-0.5,0.9c-0.5,1-0.8,2.1-0.9,3.2c0,0.1-0.1,0.3-0.1,0.4c-0.7,1.1-1.5,2.3-2.2,3.4
			c-0.1,0.1-0.1,0.2-0.2,0.3c-0.4-2.6-0.9-5.2-0.3-7.8c-0.3,0.9-0.5,1.8-0.5,2.7c0,1.2,0.2,2.3,0.3,3.5c0.1,0.6,0.1,1.3,0.2,1.9
			c0,0.1,0,0.2-0.1,0.2c-0.9,1.3-1.8,2.6-2.7,4c0,0,0,0-0.1,0.1c-0.1-0.5-0.1-0.9-0.2-1.3c-0.3-1.3-0.5-2.6-0.9-3.8
			c-0.4-1.5-0.6-3-0.5-4.6c0-0.2,0-0.4,0-0.6c-0.3,1.3-0.3,2.6-0.1,4c-1.1-0.7-1.6-1.6-1.9-2.7c0,0.1,0,0.1,0,0.2c0,0.1,0,0.2,0,0.2
			c0.3,1,0.8,1.9,1.7,2.4c0.1,0,0.1,0.1,0.1,0.2c0.3,1.3,0.6,2.5,0.9,3.8c0.2,0.8,0.3,1.7,0.2,2.5c0,0.2-0.1,0.3-0.2,0.5
			c-0.5,0.6-1,1.2-1.6,1.9c0-0.4,0-0.6,0-0.9c-0.1-1.1-0.6-2-1.2-2.9c-0.4-0.6-0.8-1.2-1.1-1.8c-0.6-1-1.2-2.1-1.3-3.3
			c0,1.2,0.5,2.2,1,3.2c-1-0.3-1.8-0.9-2.6-1.5l-1.6,0.1c0-0.7,0-1.3,0.2-2c0.1-0.2,0.2-0.4,0.3-0.7c0.2,0.3,0.4,0.6,0.6,0.9
			c0.1-1.3,0.3-2.6,1-3.8c0.1,0.2,0.2,0.4,0.3,0.6c0,0,0,0.1,0.1,0.2C4.1,7.2,4.2,6.3,5,5.8c0.1,0.4,0.2,0.7,0.3,1.1
			c0,0,0.1,0,0.1,0c0.2-0.3,0.4-0.6,0.6-1C6.4,5.5,6.6,5,6.9,4.6c0.2-0.3,0.5-0.5,0.8-0.7c0,0,0.1,0,0.1,0.1c0,0.1,0.1,0.3,0.1,0.5
			C8,4.2,8.1,4.1,8.3,4C8.5,3.8,8.8,3.5,9,3.2C9.3,3,9.6,2.9,9.9,2.9C9.9,3.3,9.8,3.6,10.1,4c0.2-0.2,0.4-0.4,0.6-0.5
			c0.4-0.4,0.7-0.7,1.1-1.1c0.2-0.2,0.5-0.3,0.8-0.5c0,0,0.1,0,0.1,0.1c0,0.1-0.1,0.3-0.1,0.5c0.2,0,0.3-0.1,0.5-0.1
			c0.3-0.1,0.6-0.3,0.9-0.4c0.3-0.1,0.6-0.1,0.9-0.2c0,0,0,0.1,0.1,0.1c-0.1,0.2-0.2,0.5-0.3,0.7c0,0,0,0,0,0.1
			c0.2,0,0.3-0.1,0.5-0.1c0.4-0.2,0.9-0.4,1.3-0.6c0.3-0.1,0.7-0.2,1.1-0.1c-0.1,0.1-0.1,0.3-0.2,0.5c0.2,0,0.3-0.1,0.4-0.1
			C18.1,2,18.5,1.8,19,1.6c0.2-0.1,0.5-0.1,0.9-0.1c-0.1,0.2-0.1,0.3-0.2,0.4C20,2.1,20.3,2.1,20.6,2.1C20.6,2.1,20.6,2.1,20.6,2.1z
			"/>
		<path d="M19.3,16.1l-0.2,1.7c-0.4,0.2-0.8,0.5-1,0.9c-0.2,0.4-0.5,0.5-0.9,0.5c-1.1,0.1-2.3,0-3.4-0.1c-1.2-0.2-2.4-0.3-3.6-0.2
			c0,0,0,0-0.1,0c0.4-0.6,0.8-1.2,1.2-1.8c0-0.1,0.1-0.1,0.2-0.1c1.3-0.6,2.6-0.9,3.9-1c0.8-0.1,1.5-0.1,2.3-0.2
			c0.2,0,0.4,0,0.5,0.1C18.5,16,18.9,16.1,19.3,16.1z"/>
		<path d="M7.4,17.9c0.3,0.6,0.4,1.3,0.3,2.1c-0.1,0.4-0.3,0.6-0.7,0.9c-0.3-0.8-0.9-1.2-1.5-1.6c-0.7-0.4-1.3-0.9-2-1.3
			c-1.2-0.9-1.9-2.2-2.2-3.7c-0.1-0.5-0.2-1-0.2-1.5l1.6-0.1C2.9,12.8,3,12.9,3,13c0.1,0.1,0.2,0.2,0.2,0.2c0.6,0.6,1.3,1.1,2.2,1.3
			c0.1,0,0.2,0.1,0.2,0.1C6.2,15.7,6.8,16.8,7.4,17.9z"/>
	</g>
	<g>
	</g>
</g>
</svg>
