<svg width="17" height="21" viewBox="0 0 17 21" fill="none" xmlns="http://www.w3.org/2000/svg">
<g filter="url(#filter0_d_6731_16620)">
<path d="M1,18.4v-2.8h2.2V4.4H1V1.6h8.6c1,0,1.9,0.2,2.7,0.5c0.8,0.3,1.4,0.8,1.8,1.5s0.6,1.4,0.6,2.3v0.2
		c0,0.8-0.1,1.4-0.4,1.9s-0.6,0.9-1,1.1c-0.4,0.3-0.8,0.5-1.1,0.6v0.4c0.4,0.1,0.7,0.3,1.2,0.5c0.4,0.3,0.8,0.6,1.1,1.1
		c0.3,0.5,0.4,1.1,0.4,1.9V14c0,0.9-0.2,1.7-0.6,2.4c-0.4,0.7-1,1.2-1.8,1.5c-0.8,0.4-1.6,0.5-2.7,0.5H1z M6.4,8.5h2.9
		c0.7,0,1.2-0.2,1.6-0.5s0.6-0.8,0.6-1.4V6.4c0-0.6-0.2-1.1-0.6-1.4s-1-0.5-1.6-0.5H6.4V8.5z M6.4,15.5h3c0.7,0,1.2-0.2,1.7-0.5
		c0.4-0.3,0.6-0.8,0.6-1.4v-0.2c0-0.6-0.2-1.1-0.6-1.4c-0.4-0.3-1-0.5-1.7-0.5h-3V15.5z" fill="#111B2B"/>
</g>
<defs>
<filter id="filter0_d_6731_16620" x="0.26001" y="0.399902" width="16.37" height="20.6001" filterUnits="userSpaceOnUse" color-interpolation-filters="sRGB">
<feFlood flood-opacity="0" result="BackgroundImageFix"/>
<feColorMatrix in="SourceAlpha" type="matrix" values="0 0 0 0 0 0 0 0 0 0 0 0 0 0 0 0 0 0 127 0" result="hardAlpha"/>
<feOffset dy="4"/>
<feGaussianBlur stdDeviation="2"/>
<feComposite in2="hardAlpha" operator="out"/>
<feColorMatrix type="matrix" values="0 0 0 0 0 0 0 0 0 0 0 0 0 0 0 0 0 0 0.25 0"/>
<feBlend mode="normal" in2="BackgroundImageFix" result="effect1_dropShadow_6731_16620"/>
<feBlend mode="normal" in="SourceGraphic" in2="effect1_dropShadow_6731_16620" result="shape"/>
</filter>
</defs>
</svg>