<svg width="78" height="22" viewBox="0 0 78 22" fill="none" xmlns="http://www.w3.org/2000/svg" x="0px" y="0px" fill="#111B2B">
	<path d="M10,18.4v-2.8h2.2V4.4H10V1.6h8.6c1,0,1.9,0.2,2.7,0.5c0.8,0.3,1.4,0.8,1.8,1.5s0.6,1.4,0.6,2.3v0.2
			c0,0.8-0.1,1.4-0.4,1.9c-0.3,0.5-0.6,0.9-1,1.1c-0.4,0.3-0.8,0.5-1.1,0.6v0.4c0.4,0.1,0.7,0.3,1.2,0.5c0.4,0.3,0.8,0.6,1.1,1.1
			c0.3,0.5,0.4,1.1,0.4,1.9V14c0,0.9-0.2,1.7-0.6,2.4c-0.4,0.7-1,1.2-1.8,1.5c-0.8,0.4-1.6,0.5-2.7,0.5H10z M15.4,8.5h2.9
			c0.7,0,1.2-0.2,1.6-0.5s0.6-0.8,0.6-1.4V6.4c0-0.6-0.2-1.1-0.6-1.4c-0.4-0.3-1-0.5-1.6-0.5h-2.9V8.5z M15.4,15.5h3
			c0.7,0,1.2-0.2,1.7-0.5c0.4-0.3,0.6-0.8,0.6-1.4v-0.2c0-0.6-0.2-1.1-0.6-1.4c-0.4-0.3-1-0.5-1.7-0.5h-3V15.5z"/>
	<path d="M26.2,5.1c-0.5,0-1-0.2-1.4-0.5c-0.4-0.4-0.6-0.8-0.6-1.4c0-0.6,0.2-1,0.6-1.4s0.8-0.5,1.4-0.5c0.6,0,1,0.2,1.4,0.5
		c0.4,0.4,0.6,0.8,0.6,1.4c0,0.6-0.2,1-0.6,1.4C27.2,5,26.8,5.1,26.2,5.1z M24.7,18.4V6.5h3v11.9H24.7z"/>
	<path d="M29.3,18.4V6.5h3v1.3h0.4c0.2-0.5,0.5-0.8,0.9-1.1C34,6.6,34.5,6.5,35,6.5h1.4v2.7H35c-0.8,0-1.4,0.2-1.9,0.6
		c-0.5,0.4-0.7,1-0.7,1.9v6.8H29.3z"/>
	<path d="M42.6,18.8c-1.2,0-2.2-0.2-3.1-0.7c-0.9-0.5-1.7-1.2-2.2-2.1c-0.5-0.9-0.8-2-0.8-3.3v-0.3c0-1.3,0.3-2.4,0.8-3.3
		s1.3-1.6,2.2-2.1c0.9-0.5,2-0.7,3.1-0.7c1.1,0,2.1,0.2,2.9,0.6c0.8,0.4,1.5,0.9,2,1.6c0.5,0.7,0.8,1.5,1,2.4l-2.9,0.6
		c-0.1-0.5-0.2-0.9-0.4-1.3c-0.2-0.4-0.5-0.7-0.9-0.9s-0.9-0.3-1.5-0.3S41.5,9,41,9.3c-0.5,0.3-0.9,0.7-1.2,1.2
		c-0.3,0.5-0.4,1.2-0.4,1.9v0.2c0,0.8,0.1,1.4,0.4,1.9c0.3,0.5,0.7,0.9,1.2,1.2c0.5,0.3,1,0.4,1.6,0.4c0.9,0,1.6-0.2,2.1-0.7
		c0.5-0.5,0.8-1.1,0.9-1.9l2.9,0.7c-0.2,0.8-0.6,1.6-1.1,2.3s-1.2,1.2-2,1.6C44.7,18.6,43.7,18.8,42.6,18.8z"/>
	<path d="M49.3,18.4V1.6h3V8h0.4c0.1-0.3,0.3-0.5,0.6-0.8C53.6,7,54,6.8,54.4,6.6c0.5-0.2,1-0.3,1.7-0.3c0.9,0,1.7,0.2,2.4,0.6
		c0.7,0.4,1.2,1,1.6,1.8s0.6,1.6,0.6,2.6v7.1h-3v-6.9c0-0.9-0.2-1.6-0.7-2c-0.4-0.4-1.1-0.7-1.9-0.7c-0.9,0-1.6,0.3-2.2,0.9
		c-0.5,0.6-0.8,1.5-0.8,2.6v6H49.3z"/>
</svg>
