<?xml version="1.0" encoding="utf-8"?>
<!-- Generator: Adobe Illustrator 28.0.0, SVG Export Plug-In . SVG Version: 6.00 Build 0)  -->
<svg version="1.1" id="Layer_1" xmlns="http://www.w3.org/2000/svg" xmlns:xlink="http://www.w3.org/1999/xlink" x="0px" y="0px"
	 viewBox="0 0 75 26" style="enable-background:new 0 0 75 26;" xml:space="preserve">
<style type="text/css">
	.st0{enable-background:new    ;}
	.st1{fill:#FFFFFF;}
</style>
<g>
	<g class="st0">
		<path d="M24.4,19.7v-1h1.8V8.1h-1.8v-1h6.2c0.7,0,1.4,0.1,1.9,0.4c0.6,0.3,1,0.6,1.3,1.1c0.3,0.5,0.5,1,0.5,1.6v0.1
			c0,0.6-0.1,1.1-0.3,1.5c-0.2,0.4-0.5,0.7-0.8,0.9s-0.6,0.4-1,0.5v0.2c0.3,0.1,0.6,0.2,1,0.4c0.3,0.2,0.6,0.5,0.8,0.9
			s0.3,0.9,0.3,1.5v0.2c0,0.7-0.2,1.3-0.5,1.8s-0.8,0.9-1.3,1.1c-0.6,0.3-1.2,0.4-1.9,0.4H24.4z M27.4,12.8h3.2c0.8,0,1.5-0.2,2-0.6
			c0.5-0.4,0.7-1,0.7-1.6v-0.2c0-0.7-0.2-1.2-0.7-1.6c-0.5-0.4-1.1-0.6-2-0.6h-3.2V12.8z M27.4,18.7h3.1c0.9,0,1.6-0.2,2-0.6
			c0.5-0.4,0.7-1,0.7-1.7v-0.1c0-0.7-0.2-1.3-0.7-1.7c-0.5-0.4-1.1-0.6-2-0.6h-3.1V18.7z"/>
		<path d="M37,19.7V7.1h1.2v12.6H37z"/>
		<path d="M41.2,19.7V7.1h4.9c0.8,0,1.5,0.1,2.1,0.4c0.6,0.3,1.1,0.6,1.4,1.1c0.3,0.5,0.5,1.1,0.5,1.8v0.2c0,0.9-0.2,1.5-0.6,2
			c-0.4,0.5-0.9,0.8-1.4,1v0.2c0.4,0,0.8,0.1,1.1,0.4s0.4,0.7,0.4,1.2v4.3h-1.2v-4.2c0-0.4-0.1-0.7-0.3-0.9s-0.5-0.3-0.9-0.3h-4.8
			v5.3H41.2z M42.4,13.3H46c0.9,0,1.7-0.2,2.2-0.7c0.5-0.4,0.8-1.1,0.8-1.9v-0.1c0-0.8-0.2-1.4-0.7-1.9C47.7,8.4,47,8.1,46,8.1h-3.7
			V13.3z"/>
		<path d="M57,20c-1.5,0-2.7-0.4-3.5-1.3c-0.9-0.9-1.3-2.1-1.3-3.8V12c0-1.7,0.4-3,1.3-3.8c0.9-0.9,2.1-1.3,3.5-1.3
			c1.5,0,2.6,0.4,3.4,1.2c0.8,0.8,1.2,1.9,1.2,3.4v0.1h-1.2v-0.1c0-1-0.3-1.9-0.8-2.5c-0.5-0.7-1.4-1-2.5-1c-1.2,0-2.1,0.4-2.7,1.1
			s-1,1.7-1,3v2.9c0,1.3,0.3,2.3,1,3s1.6,1.1,2.7,1.1c1.2,0,2-0.3,2.5-1c0.5-0.7,0.8-1.5,0.8-2.5v-0.3h1.2v0.2
			c0,1.4-0.4,2.5-1.2,3.4C59.6,19.5,58.5,20,57,20z"/>
		<path d="M64.1,19.7V7.1h1.2v5.8h6.4V7.1h1.2v12.6h-1.2v-5.8h-6.4v5.8H64.1z"/>
	</g>
</g>
<g>
	<path class="st1" d="M4.6,5.6C3.7,6.1,3.6,7,3.2,7.9c0-0.1-0.1-0.1-0.1-0.2C3.1,7.5,3,7.3,2.9,7.1c-0.8,1.1-0.9,2.4-1,3.8
		c-0.2-0.3-0.4-0.6-0.6-0.9c-0.1,0.3-0.2,0.5-0.3,0.7c-0.4,1.2-0.3,2.3,0,3.5c0.3,1.5,1,2.7,2.2,3.7c0.6,0.5,1.3,0.9,1.9,1.3
		c0.6,0.4,1.2,0.8,1.5,1.6c0.3-0.3,0.6-0.5,0.7-0.9c0.1-0.7,0-1.4-0.3-2.1c-0.5-1.1-1.2-2.1-1.7-3.2c0-0.1-0.1-0.1-0.2-0.1
		c-0.8-0.3-1.5-0.7-2.2-1.3c-0.1-0.1-0.2-0.2-0.2-0.2c-0.1-0.1-0.1-0.2-0.2-0.2c0.8,0.7,1.6,1.2,2.6,1.5C4.4,13,3.9,12,3.9,10.8
		C4,12,4.6,13.1,5.2,14.1c0.4,0.6,0.8,1.2,1.1,1.8c0.6,0.9,1.1,1.8,1.2,2.9c0,0.3,0,0.6,0.1,0.9c0.6-0.7,1.1-1.3,1.6-1.9
		c0.1-0.1,0.2-0.3,0.2-0.5c0.1-0.8,0-1.7-0.2-2.5c-0.3-1.3-0.6-2.5-0.9-3.8c0-0.1-0.1-0.2-0.2-0.2c-0.9-0.5-1.5-1.4-1.7-2.4
		c0-0.1,0-0.2,0-0.2c0-0.1,0-0.1,0-0.2c0.3,1.1,0.8,2,1.9,2.7C8,9.3,7.9,8,8.3,6.7c0,0.2,0,0.4,0,0.6c-0.1,1.6,0.1,3.1,0.5,4.6
		c0.3,1.3,0.6,2.5,0.9,3.8c0.1,0.4,0.1,0.9,0.2,1.3c0,0,0.1-0.1,0.1-0.1c0.9-1.3,1.8-2.6,2.7-4c0-0.1,0.1-0.2,0.1-0.2
		c-0.1-0.6-0.1-1.3-0.2-1.9c-0.1-1.2-0.3-2.3-0.3-3.5c0-0.9,0.2-1.8,0.5-2.7c-0.5,2.6-0.1,5.2,0.3,7.8c0.1-0.1,0.1-0.2,0.2-0.3
		c0.7-1.1,1.5-2.3,2.2-3.4c0.1-0.1,0.1-0.3,0.2-0.4C15.5,7.1,15.8,6,16.3,5c0.2-0.3,0.3-0.6,0.5-0.9c0.2-0.3,0.4-0.5,0.6-0.8
		c-0.8,1.4-1.6,2.8-1.7,4.6c0.5-0.7,1-1.3,1.5-1.9c0.5-0.6,1.1-1.2,1.7-1.7c0.6-0.5,1.2-1,1.9-1.3c-1.3,0.9-2.4,2.1-3.4,3.4
		c1,0.1,1.9-0.2,2.8-0.6C20.1,5.9,20,6,19.9,6c-0.7,0.4-1.5,0.5-2.3,0.6c-0.3,0-0.5,0.1-0.6,0.3c-1,1.5-2,3-3,4.6
		c-0.1,0.1-0.2,0.3-0.3,0.4c2.3-0.3,4.2-1.2,6.2-2.2c0,0.1-0.1,0.1-0.1,0.1c-1.9,1.2-3.9,2-6,2.4c-0.2,0-0.3,0.1-0.4,0.3
		c-0.7,1.2-1.5,2.5-2.2,3.7c0,0-0.1,0.1-0.1,0.2c0.6-0.2,1.2-0.3,1.7-0.5c1.3-0.3,2.6-0.3,3.9-0.4c1.1-0.1,2.2-0.3,3.2-0.9
		c0.1,0,0.1-0.1,0.2-0.1c-0.7,0.6-1.6,0.9-2.5,1.1c0.8,0.4,1.6,0.4,2.4,0.4c-0.8,0.1-1.6,0-2.4-0.3c-0.2-0.1-0.3-0.1-0.5-0.1
		c-0.8,0.1-1.5,0.1-2.3,0.2c-1.4,0.1-2.7,0.4-3.9,1c-0.1,0-0.2,0.1-0.2,0.1c-0.4,0.6-0.8,1.2-1.2,1.8c0,0,0,0,0.1,0
		c1.2-0.1,2.4,0.1,3.6,0.2c1.1,0.2,2.3,0.3,3.4,0.1c0.4,0,0.7-0.1,0.9-0.5c0.2-0.4,0.6-0.7,1-0.9c-0.8,0.8-0.9,1-1,1.3
		c0.7-0.3,1.4-0.5,2.1-0.7c-1,0.7-2.2,1-3.4,1.1c0.9,0.5,1.8,0.7,2.8,0.7c-1.1,0.1-2.1-0.1-3.1-0.6c-0.1,0-0.2-0.1-0.3-0.1
		c-1.2-0.1-2.4-0.2-3.5-0.3c-0.9-0.1-1.7-0.1-2.6,0c-0.3,0.1-0.5,0.2-0.7,0.4c-0.2,0.3-0.5,0.6-0.7,1c-0.1,0.1-0.1,0.1-0.2,0.2
		c1.7-0.1,3.3,0.3,4.9,0.7c1.3,0.4,2.6,0.8,4,0.9c-0.3,0-0.7,0-1,0c-1-0.2-2-0.5-3-0.7c-1.5-0.4-2.9-0.6-4.5-0.6
		c-0.9,0-1.2,0.6-1.7,1.1c1.3-0.1,2.3,0.3,3.3,1.1c0.3,0.3,0.6,0.5,1,0.8c0.6,0.5,1.2,0.9,2,1.1c1.2,0.4,2.3,0.2,3.5-0.1
		c0.5-0.1,0.9-0.3,1.4-0.4c0,0,0-0.1,0-0.1c-0.3-0.2-0.5-0.3-0.7-0.4c0.6-0.1,1.2-0.1,1.7-0.3c0.6-0.2,1.1-0.4,1.6-0.7
		c0.4-0.2,0.4-0.4,0-0.6c-0.2-0.1-0.4-0.2-0.6-0.3c0.1,0,0.2-0.1,0.3-0.1c0.7-0.3,1.4-0.7,2-1.2c0.2-0.2,0.2-0.3-0.1-0.5
		c0.2-0.2,0.4-0.4,0.5-0.6c0.2-0.3,0.4-0.5,0.6-0.8c0.1-0.3,0.1-0.3-0.2-0.4c-0.2,0-0.4-0.1-0.6-0.1c0.3-0.3,0.5-0.5,0.7-0.8
		c0.3-0.4,0.5-0.8,0.8-1.2c0.1-0.1,0.1-0.3-0.2-0.3c-0.3,0-0.4-0.1-0.2-0.4c0-0.1,0.1-0.2,0.2-0.3c0.1-0.3,0.3-0.5,0.4-0.8
		c0.1-0.4,0-0.5-0.4-0.5c-0.3,0-0.6,0.1-0.9,0.1c0.4-0.7,0.9-1.4,1-2.3c-0.2,0-0.3,0.1-0.5,0.1c-0.3,0-0.4-0.1-0.3-0.3
		c0.2-0.3,0.4-0.7,0.5-1c0.1-0.2,0.1-0.4,0.2-0.5c0-0.2-0.1-0.3-0.3-0.3c-0.1,0-0.2,0-0.3,0c-0.3,0-0.4-0.1-0.3-0.4
		C22.8,9.4,23,9.1,23,8.9c0.1-0.4,0.2-0.9,0.3-1.3c0-0.3-0.1-0.4-0.4-0.3c-0.2,0.1-0.3,0-0.3-0.2c0-0.2,0-0.5,0.1-0.7
		c0.2-0.7,0.4-1.3,0.5-2c0.1-0.2,0-0.4,0.1-0.7C23,3.8,22.9,3.9,22.7,4c-0.1,0-0.2,0-0.3,0c0-0.1,0-0.2,0-0.2
		c0.1-0.2,0.1-0.4,0.2-0.6c0.5-0.8,0.9-1.6,1.4-2.4c0.1-0.1,0.1-0.2,0.2-0.3c-0.4,0.1-0.8,0.3-1.2,0.5c-1,0.4-1.9,0.8-3,0.9
		c-0.3,0-0.6,0-0.9-0.1c0-0.1,0.1-0.2,0.2-0.4c-0.3,0-0.6,0-0.9,0.1C18,1.6,17.6,1.8,17.2,2c-0.1,0-0.2,0.1-0.4,0.1
		c0.1-0.2,0.1-0.3,0.2-0.5c-0.4-0.1-0.8,0-1.1,0.1c-0.4,0.2-0.9,0.4-1.3,0.6c-0.2,0.1-0.3,0.1-0.5,0.1c0,0,0,0,0-0.1
		c0.1-0.2,0.2-0.5,0.3-0.7c0,0,0-0.1-0.1-0.1c-0.3,0.1-0.6,0.1-0.9,0.2c-0.3,0.1-0.6,0.3-0.9,0.4c-0.1,0.1-0.3,0.1-0.5,0.1
		c0-0.2,0.1-0.4,0.1-0.5c0,0-0.1,0-0.1-0.1c-0.3,0.1-0.6,0.3-0.8,0.5c-0.4,0.3-0.7,0.7-1,1.1C10,3.4,9.8,3.6,9.6,3.8
		C9.3,3.5,9.4,3.1,9.5,2.7c-0.4,0-0.7,0.1-0.9,0.4C8.3,3.3,8.1,3.6,7.8,3.8C7.7,4,7.5,4.1,7.3,4.2c0-0.2-0.1-0.3-0.1-0.5
		c0,0-0.1,0-0.1,0C6.9,3.9,6.6,4.1,6.4,4.4C6.1,4.8,5.9,5.3,5.6,5.7C5.4,6,5.2,6.4,5,6.7c0,0-0.1,0-0.1,0C4.8,6.3,4.7,6,4.6,5.6z
		 M14.5,10.4C14.4,10.4,14.4,10.4,14.5,10.4c-0.5,0.6-0.9,1.3-1.3,1.9c-1.7,2.6-3.3,5.3-5.5,7.5c-0.9,0.9-1.8,1.8-2.9,2.4
		C4,22.7,3.1,23,2.3,23.5c-0.3,0.2-0.4,0.3-0.1,0.6c0.2,0.2,0.4,0.5,0.7,0.7c0.3,0.3,0.5,0.3,0.7,0c0.6-0.5,1.2-1.1,1.8-1.6
		c1.3-1.2,2.6-2.5,3.7-4c1.4-1.9,2.6-3.9,3.7-5.9C13.4,12.3,13.9,11.3,14.5,10.4z"/>
	<path d="M4.6,5.6C4.7,6,4.8,6.3,4.9,6.7c0,0,0.1,0,0.1,0c0.2-0.3,0.4-0.6,0.6-1c0.3-0.4,0.5-0.9,0.8-1.3c0.2-0.3,0.5-0.5,0.8-0.7
		c0,0,0.1,0,0.1,0c0,0.1,0,0.3,0.1,0.5C7.5,4.1,7.7,4,7.8,3.8c0.3-0.2,0.5-0.5,0.7-0.7c0.3-0.2,0.5-0.4,0.9-0.4
		C9.4,3.1,9.3,3.5,9.6,3.8c0.2-0.2,0.4-0.4,0.6-0.5c0.4-0.4,0.7-0.7,1-1.1c0.2-0.2,0.5-0.3,0.8-0.5c0,0,0.1,0,0.1,0.1
		c0,0.1-0.1,0.3-0.1,0.5c0.2-0.1,0.3-0.1,0.5-0.1c0.3-0.1,0.6-0.3,0.9-0.4c0.3-0.1,0.6-0.1,0.9-0.2c0,0,0,0.1,0.1,0.1
		c-0.1,0.2-0.2,0.5-0.3,0.7c0,0,0,0,0,0.1c0.2,0,0.3-0.1,0.5-0.1c0.4-0.2,0.9-0.4,1.3-0.6c0.3-0.1,0.7-0.2,1.1-0.1
		c-0.1,0.1-0.1,0.3-0.2,0.5C16.9,2,17.1,2,17.2,2c0.4-0.2,0.9-0.4,1.3-0.5c0.3-0.1,0.5-0.1,0.9-0.1c-0.1,0.2-0.1,0.3-0.2,0.4
		c0.3,0.2,0.6,0.2,0.9,0.1c1-0.1,2-0.5,3-0.9c0.4-0.2,0.8-0.4,1.2-0.5c-0.1,0.1-0.1,0.2-0.2,0.3c-0.5,0.8-0.9,1.6-1.4,2.4
		c-0.1,0.2-0.2,0.4-0.2,0.6c0,0.1,0,0.2,0,0.2c0.1,0,0.2,0,0.3,0c0.2-0.1,0.3-0.2,0.5-0.3c0,0.2,0,0.5-0.1,0.7
		c-0.2,0.7-0.4,1.3-0.5,2c-0.1,0.2-0.1,0.5-0.1,0.7c0,0.2,0.1,0.3,0.3,0.2c0.3-0.1,0.4-0.1,0.4,0.3c0,0.4-0.2,0.9-0.3,1.3
		c-0.1,0.3-0.2,0.5-0.3,0.8c-0.1,0.3,0,0.4,0.3,0.4c0.1,0,0.2,0,0.3,0c0.2,0,0.3,0,0.3,0.3c0,0.2-0.1,0.4-0.2,0.5
		c-0.2,0.3-0.4,0.7-0.5,1c-0.1,0.3,0,0.4,0.3,0.3c0.1,0,0.3-0.1,0.5-0.1c0,0.9-0.5,1.6-1,2.3c0.3,0,0.6-0.1,0.9-0.1
		c0.4,0,0.5,0.1,0.4,0.5c-0.1,0.3-0.3,0.5-0.4,0.8c-0.1,0.1-0.1,0.2-0.2,0.3c-0.1,0.3,0,0.4,0.2,0.4c0.3,0,0.3,0.1,0.2,0.3
		c-0.2,0.4-0.5,0.8-0.8,1.2c-0.2,0.3-0.5,0.5-0.7,0.8c0.2,0,0.4,0.1,0.6,0.1c0.3,0.1,0.4,0.2,0.2,0.4c-0.2,0.3-0.4,0.6-0.6,0.8
		c-0.2,0.2-0.3,0.4-0.5,0.6c0.3,0.2,0.3,0.3,0.1,0.5c-0.5,0.6-1.2,1-2,1.2c-0.1,0-0.2,0-0.3,0.1c0.2,0.1,0.4,0.2,0.6,0.3
		c0.4,0.2,0.5,0.4,0,0.6c-0.5,0.3-1.1,0.5-1.6,0.7c-0.5,0.2-1.1,0.2-1.7,0.3c0.2,0.1,0.5,0.3,0.7,0.4c0,0,0,0.1,0,0.1
		c-0.5,0.1-0.9,0.3-1.4,0.4c-1.1,0.3-2.3,0.4-3.5,0.1c-0.7-0.2-1.4-0.7-2-1.1c-0.3-0.3-0.6-0.5-1-0.8c-1-0.8-2-1.2-3.3-1.1
		c0.5-0.5,0.9-1.1,1.7-1.1c1.5-0.1,3,0.2,4.5,0.6c1,0.2,2,0.5,3,0.7c0.3,0.1,0.7,0,1,0c-1.4-0.1-2.7-0.6-4-0.9
		c-1.6-0.4-3.2-0.8-4.9-0.7c0.1-0.1,0.1-0.2,0.2-0.2c0.2-0.3,0.5-0.6,0.7-1c0.2-0.3,0.4-0.4,0.7-0.4c0.9-0.2,1.7-0.1,2.6,0
		c1.2,0.1,2.4,0.2,3.5,0.3c0.1,0,0.2,0,0.3,0.1c1,0.5,2,0.7,3.1,0.6c-1-0.1-1.9-0.2-2.8-0.7c1.2-0.1,2.3-0.5,3.4-1.1
		c-0.7,0.2-1.4,0.5-2.1,0.7c0.1-0.4,0.2-0.5,1-1.3c-0.4,0.2-0.8,0.5-1,0.9c-0.2,0.4-0.5,0.5-0.9,0.5c-1.1,0.1-2.3,0-3.4-0.1
		c-1.2-0.2-2.4-0.3-3.6-0.2c0,0,0,0-0.1,0c0.4-0.6,0.8-1.2,1.2-1.8c0-0.1,0.1-0.1,0.2-0.1c1.3-0.6,2.6-0.9,3.9-1
		c0.8-0.1,1.5-0.1,2.3-0.2c0.2,0,0.4,0,0.5,0.1c0.8,0.3,1.6,0.4,2.4,0.3c-0.8,0-1.6,0-2.4-0.4c0.9-0.2,1.8-0.5,2.5-1.1
		c-0.1,0-0.1,0-0.2,0.1c-1,0.6-2.1,0.8-3.2,0.9c-1.3,0.1-2.6,0.1-3.9,0.4c-0.6,0.1-1.1,0.3-1.7,0.5c0-0.1,0-0.1,0.1-0.2
		c0.7-1.2,1.5-2.5,2.2-3.7c0.1-0.2,0.2-0.2,0.4-0.3c2.2-0.4,4.2-1.3,6-2.4c0,0,0.1,0,0.1-0.1c-1.9,1-3.9,2-6.2,2.2
		c0.1-0.2,0.2-0.3,0.3-0.4c1-1.5,2-3,3-4.6c0.2-0.2,0.4-0.3,0.6-0.3c0.8,0,1.6-0.2,2.3-0.6C20,6,20.1,5.9,20.2,5.8
		c-0.9,0.3-1.8,0.6-2.8,0.6c1-1.3,2.1-2.4,3.4-3.4c-0.7,0.3-1.4,0.7-1.9,1.3c-0.6,0.5-1.2,1.1-1.7,1.7c-0.5,0.6-1,1.2-1.5,1.9
		c0.1-1.8,0.8-3.2,1.7-4.6c-0.2,0.3-0.4,0.5-0.6,0.8c-0.2,0.3-0.4,0.6-0.5,0.9c-0.5,1-0.8,2.1-0.9,3.2c0,0.1-0.1,0.3-0.2,0.4
		c-0.7,1.2-1.5,2.3-2.2,3.4c-0.1,0.1-0.1,0.2-0.2,0.3c-0.4-2.6-0.9-5.2-0.3-7.8c-0.3,0.9-0.5,1.8-0.5,2.7c0,1.2,0.2,2.3,0.3,3.5
		c0.1,0.6,0.1,1.3,0.2,1.9c0,0.1,0,0.2-0.1,0.2c-0.9,1.3-1.8,2.7-2.7,4c0,0,0,0-0.1,0.1c-0.1-0.5-0.1-0.9-0.2-1.3
		c-0.3-1.3-0.5-2.6-0.9-3.8c-0.4-1.5-0.6-3-0.5-4.6c0-0.2,0-0.4,0-0.6C7.9,8,8,9.3,8.2,10.7C7.1,10.1,6.6,9.1,6.3,8
		c0,0.1,0,0.1,0,0.2c0,0.1,0,0.2,0,0.2c0.3,1,0.8,1.9,1.7,2.4c0.1,0,0.1,0.1,0.2,0.2c0.3,1.3,0.6,2.5,0.9,3.8
		c0.2,0.8,0.3,1.7,0.2,2.5c0,0.2-0.1,0.3-0.2,0.5c-0.5,0.6-1,1.2-1.6,1.9c0-0.4,0-0.6-0.1-0.9c-0.1-1.1-0.6-2-1.2-2.9
		c-0.4-0.6-0.8-1.2-1.1-1.8c-0.6-1-1.2-2.1-1.3-3.3c0,1.2,0.5,2.2,1.1,3.2c-1-0.3-1.8-0.9-2.6-1.5c0.1,0.1,0.1,0.2,0.2,0.2
		C2.6,12.9,2.7,13,2.8,13c0.6,0.6,1.4,1,2.2,1.3c0.1,0,0.2,0.1,0.2,0.1c0.6,1.1,1.2,2.1,1.7,3.2c0.3,0.6,0.4,1.4,0.3,2.1
		c-0.1,0.4-0.4,0.6-0.7,0.9c-0.3-0.8-0.9-1.2-1.5-1.6c-0.7-0.4-1.3-0.9-1.9-1.3c-1.2-0.9-1.9-2.2-2.2-3.7c-0.3-1.2-0.4-2.3,0-3.5
		c0.1-0.2,0.2-0.4,0.3-0.7c0.2,0.3,0.4,0.6,0.6,0.9c0.1-1.3,0.3-2.6,1-3.8C3,7.3,3.1,7.5,3.2,7.7c0,0,0,0.1,0.1,0.2
		C3.6,7,3.7,6.1,4.6,5.6z"/>
	<path d="M14.5,10.4c-0.5,0.9-1.1,1.9-1.6,2.8c-1.1,2-2.3,4-3.7,5.9c-1.1,1.5-2.4,2.7-3.7,4c-0.6,0.6-1.2,1.1-1.8,1.6
		c-0.3,0.2-0.5,0.2-0.7,0c-0.2-0.2-0.5-0.4-0.7-0.7c-0.2-0.3-0.2-0.4,0.1-0.6C3.1,23,4,22.7,4.8,22.2c1.1-0.6,2-1.5,2.9-2.4
		c2.2-2.2,3.9-4.9,5.5-7.5C13.6,11.7,14,11,14.5,10.4C14.4,10.4,14.4,10.4,14.5,10.4z"/>
</g>
</svg>
