<svg width="17" height="21" viewBox="0 0 17 21" fill="none" xmlns="http://www.w3.org/2000/svg" fill="#111B2B">
<g filter="url(#filter0_d_6731_16620)">
	<path class="st0" d="M3.3,4C2.7,4.3,2.6,4.9,2.4,5.5C2.3,5.3,2.3,5.1,2.2,4.9C1.6,5.7,1.6,6.5,1.5,7.5C1.4,7.3,1.2,7.1,1.1,6.9
		C0.6,7.8,0.6,8.7,0.9,9.7c0.6,3,3.2,2.9,3.7,4.4c1.4-1.2-0.4-2.9-0.9-4.1c0-0.1-0.1-0.1-0.1-0.1C3.1,9.6,2.6,9.4,2.2,9
		C2.1,8.8,2,8.7,2,8.7C1.9,8.6,1.9,8.6,1.8,8.6c0.5,0.5,1.1,0.8,1.7,1C3.2,8.9,2.8,8.2,2.8,7.5c0.2,1.3,1,2.3,1.6,3.4
		c0.7,0.7,0.9,1.5,0.9,2.5c0.4-0.5,1.1-1.1,1.2-1.6c0.1-1.4-0.5-2.8-0.7-4.2c0-0.1-0.1-0.1-0.1-0.1C5,7,4.5,6.3,4.6,5.5
		c0.2,0.7,0.5,1.3,1.3,1.8C5.7,6.4,5.6,5.5,5.9,4.7C5.5,7,6.5,9.2,6.8,11.5C7.5,10.6,8,9.7,8.7,8.8c0-0.1,0.1-0.1,0.1-0.1
		C8.5,6.8,8,5.1,8.7,3.3C8.3,5,8.6,6.7,8.9,8.5c0.6-0.9,1.2-1.8,1.7-2.7c0.1-1.2,0.6-2.3,1.3-3.3c-0.5,0.9-1.1,1.9-1.1,3.1
		c0.9-1.3,2-2.5,3.4-3.3c-0.9,0.6-1.6,1.4-2.3,2.3c0.7,0.1,1.3-0.1,1.9-0.4c-0.5,0.4-1.1,0.5-1.7,0.5c-0.5-0.1-2,2.9-2.6,3.5
		C11,8,12.2,7.4,13.6,6.7c0,0.1-0.1,0.1-0.1,0.1c-1.3,0.8-2.6,1.3-4,1.6c-0.1,0-0.2,0.1-0.3,0.2c-0.5,0.8-1.1,1.7-1.5,2.6
		c1.9-0.8,4-0.2,5.8-1.2c0.1,0,0.1-0.1,0.1-0.1c-0.5,0.4-1.1,0.6-1.7,0.7c0.5,0.3,1.1,0.3,1.6,0.3c-0.5,0.1-1.1,0-1.6-0.2
		c-0.1-0.1-0.2-0.1-0.3-0.1c-1.4,0.1-3,0.1-4.2,0.9c-0.3,0.4-0.5,0.8-0.8,1.2c1.6-0.1,3.1,0.5,4.7,0.2c0.6,0,0.6-0.7,1.3-0.9
		c-0.5,0.5-0.6,0.7-0.7,0.9c0.5-0.2,0.9-0.3,1.4-0.5c-0.7,0.5-1.5,0.7-2.3,0.7c0.6,0.3,1.2,0.5,1.9,0.5c-0.8,0.1-1.5-0.2-2.3-0.5
		C9.9,13,9.1,13,8.4,12.9c-0.7,0-1.6-0.2-2.2,0.3C6,13.4,5.8,13.7,5.6,14c2.1-0.1,3.9,0.9,5.9,1.1c-1.9,0-3.7-1-5.6-0.9
		c-0.6,0-0.8,0.4-1.1,0.7c3.3,0,2.6,3.4,7.4,1.7v-0.1c-0.2-0.1-0.3-0.2-0.5-0.3c0.8-0.1,1.5-0.3,2.2-0.7c0.5-0.3-0.2-0.5-0.4-0.6
		c0.2-0.1,2.1-0.9,1.5-1.2c0.3-0.3,0.5-0.6,0.7-0.9c0.1-0.2,0.1-0.2-0.1-0.3c-0.1,0-0.3-0.1-0.4-0.1c0.4-0.4,0.7-0.9,1-1.3
		c0.1-0.1,0.1-0.2-0.1-0.2c-0.2,0-0.3-0.1-0.1-0.3c0.5-0.8,0.8-1.2-0.5-1c0.3-0.5,0.6-0.9,0.7-1.5c-0.2,0-0.7,0.2-0.5-0.1
		c0.2-0.3,0.3-0.7,0.5-1c0-0.4-0.8,0.1-0.6-0.5c0.2-0.4,0.3-0.9,0.4-1.4c0-0.5-0.5,0.1-0.5-0.3c0.1-0.8,0.4-1.5,0.5-2.3
		c-0.1,0.1-0.3,0.1-0.3,0.2c-0.1,0-0.1,0-0.2,0c0-0.2,0.1-0.3,0.1-0.5c0.4-0.6,0.6-1.2,1-1.8c-1.1,0.4-2.2,1.1-3.4,0.9
		c0-0.1,0.1-0.1,0.1-0.3c-0.6-0.1-1.1,0.3-1.7,0.5c0.1-0.1,0.1-0.2,0.1-0.3c-0.7-0.2-1.2,0.5-1.9,0.5c0-0.1,0.3-0.6,0.1-0.6
		C9.7,1.2,9.5,1.2,9.3,1.3C8.9,1.4,8.7,1.6,8.3,1.6c0-0.1,0.1-0.3,0.1-0.3c0,0-0.1,0-0.1-0.1c-0.7,0.2-1,1-1.6,1.4
		C6.5,2.5,6.5,2.3,6.5,2C6.1,2,5.8,2.5,5.5,2.8C5.3,2.8,5.3,2.9,5.1,3c0-0.1-0.1-0.2-0.1-0.3H5C4.4,3.2,4.1,4,3.6,4.7H3.6
		C3.5,4.4,3.4,4.2,3.3,4z M9.9,7.1C9.9,7.1,9.9,7.1,9.9,7.1c-2.3,3.2-4.1,7.2-8.1,8.6c-0.2,0.1-0.3,0.2-0.1,0.4
		c0.1,0.1,0.3,0.3,0.5,0.5c0.2,0.2,0.3,0.2,0.5,0C5.8,14.2,7.9,10.6,9.9,7.1z"/>
	<path class="st0" d="M9.9,7.1c-1.9,3.5-4,7-7.2,9.5c-0.2,0.1-0.3,0.1-0.5,0c-0.2-0.2-0.8-0.6-0.4-0.9C5.7,14.3,7.7,10.4,9.9,7.1
		C9.9,7.1,9.9,7.1,9.9,7.1z"/>

</g>
<defs>
<filter id="filter0_d_6731_16620" x="0.26001" y="0.399902" width="16.37" height="20.6001" filterUnits="userSpaceOnUse" color-interpolation-filters="sRGB">
<feFlood flood-opacity="0" result="BackgroundImageFix"/>
<feColorMatrix in="SourceAlpha" type="matrix" values="0 0 0 0 0 0 0 0 0 0 0 0 0 0 0 0 0 0 127 0" result="hardAlpha"/>
<feOffset dy="4"/>
<feGaussianBlur stdDeviation="2"/>
<feComposite in2="hardAlpha" operator="out"/>
<feColorMatrix type="matrix" values="0 0 0 0 0 0 0 0 0 0 0 0 0 0 0 0 0 0 0.25 0"/>
<feBlend mode="normal" in2="BackgroundImageFix" result="effect1_dropShadow_6731_16620"/>
<feBlend mode="normal" in="SourceGraphic" in2="effect1_dropShadow_6731_16620" result="shape"/>
</filter>
</defs>
</svg>