<?xml version="1.0" encoding="utf-8"?>
<!-- Generator: Adobe Illustrator 28.0.0, SVG Export Plug-In . SVG Version: 6.00 Build 0)  -->
<svg version="1.1" id="Layer_1" xmlns="http://www.w3.org/2000/svg" xmlns:xlink="http://www.w3.org/1999/xlink" x="0px" y="0px"
	 viewBox="0 0 300 300" style="enable-background:new 0 0 300 300;" xml:space="preserve">
<style type="text/css">
	.st0{fill:#010101;}
	.st1{fill:#808285;}
</style>
<g>
	<path class="st0" d="M52.8,63.2C42.3,69,41.2,79.5,37.7,90c-1.5-3-3.1-6.2-4.7-9.3c-9.3,12.8-10.5,28-11.7,44.3
		c-2.3-3.5-4.7-7-7-10.5c-8,16.2-8.1,32.1-3.5,49c11,52.9,55.5,51.2,65.3,77c23.8-20.6-6.9-50.8-15.2-72.4c0-1.2-1.2-1.2-2.3-1.2
		c-9.3-3.5-17.5-8.2-25.7-15.2c-1.2-3.5-2.3-4.7-3.5-4.7c-1.2-1.2-1.2-2.3-2.3-2.3c9.3,8.2,18.7,14,30.3,17.5
		c-7-12.8-12.8-24.5-12.8-37.3c3.1,22.6,17.5,40.6,28,59.5c11.7,11.7,15,27.1,16.3,43.2c6.4-9,19.4-19.4,21-28
		c2.2-25-8.3-49.2-12.8-73.5c0-1.2-1.2-2.3-2.3-2.3c-11.4-6.5-20.3-19.4-19.8-32.7c3.5,12.8,9.3,23.3,22.2,31.5
		c-2.3-16.3-3.5-31.5,1.2-46.7c-6.9,40.2,10.7,80.3,16.3,120.2c11.5-15.1,21.6-31.2,32.7-47.8c0-1.2,1.2-2.3,1.2-2.3
		c-4.9-31.8-12.1-62.7-1.2-94.5c-5.8,30.3-1.2,60.7,3.5,91c9.7-15.6,21.6-31.7,30.3-47.8c1.8-20.8,10.1-41,23.3-57.2
		c-9.3,16.3-18.7,32.7-19.8,53.7c16.7-22.4,34.5-44.5,59.5-57.2c-15.2,10.5-28,24.5-39.7,39.7c11.7,1.2,22.2-2.3,32.7-7
		c-8.7,6.6-19.6,8-30.3,9.3c-9.4-1.9-35.9,51.7-45.5,61.8c26.8-3.5,49-14,72.4-25.7c0,1.2-1.2,1.2-1.2,1.2c-22.2,14-45.5,23.3-70,28
		c-2.3,0-3.5,1.2-4.7,3.5c-8.5,14.9-18.7,30.4-26.8,45.5c33.7-14.3,70.5-3.5,102.7-21c1.2,0,1.2-1.2,2.3-1.2
		c-8.2,7-18.7,10.5-29.2,12.8c9.3,4.7,18.7,4.7,28,4.7c-9.3,1.2-18.7,0-28-3.5c-2.3-1.2-3.5-1.2-5.8-1.2
		c-25.2,2.3-52.5,2.6-74.7,15.2c-4.7,7-9.3,14-14,21c27.6-2.6,55.4,8.1,82.9,3.5c11.3,0.7,11.3-12.7,22.2-16.3
		c-9.3,9.3-10.5,11.7-11.7,15.2c8.2-3.5,16.3-5.8,24.5-8.2c-11.7,8.2-25.7,11.7-39.7,12.8c10.5,5.8,21,8.2,32.7,8.2
		c-14.2,1.7-26.8-2.7-39.7-8.2c-14-1.2-28-2.3-40.8-3.5c-12.6-0.3-28.2-4.2-38.5,4.7c-3.3,3.9-6.5,9.8-10.5,14
		c36.5-2.5,68.1,15.4,103.9,18.7c-33.8-0.7-64.5-17.1-99.2-15.2c-10.5,0-14,7-19.8,12.8c57.2-0.8,45.1,59.1,130.7,29.2v-1.2
		c-3.5-2.3-5.8-3.5-8.2-4.7c14.1-1.2,26.9-4.7,38.5-11.7c9.5-4.7-2.9-8-7-10.5c4.3-1.2,37.2-15.7,25.7-21
		c5.4-5.4,8.3-10.6,12.8-16.3c1.2-3.5,1.2-3.5-2.3-4.7c-2.3,0-4.7-1.2-7-1.2c7.9-7.1,11.6-15,17.5-23.3c1.2-1.2,1.2-3.5-2.3-3.5
		c-3.5,0-4.7-1.2-2.3-4.7c8.1-14.4,14.4-21.5-8.2-17.5c4.7-8.2,10.5-16.3,11.7-26.8c-2.9,0.6-11.7,3-9.3-2.3
		c3.9-5.2,5.8-12.5,8.2-17.5c0.3-7.6-13.5,0.9-10.5-8.2c3.4-7.8,5.2-16.2,7-24.5c0.5-8.6-8.1,1-8.2-5.8c1.1-13.9,7.5-25.6,8.2-39.7
		c-2.3,1.2-4.7,2.3-5.8,3.5c-1.2,0-2.3,0-3.5,0c0.1-3.9,1.2-5.9,2.3-9.3C273,23.6,278.1,12.7,285,2.5c-19.1,6.2-38.4,20.2-59.5,15.2
		c0-1.2,1.2-2.3,2.3-4.7c-11-1-19.8,5.6-30.3,8.2c1.2-2.3,1.2-3.5,2.3-5.8c-13-3.1-21.9,8.5-33.8,9.3c-0.8-2.1,5.7-10.2,2.3-10.5
		c-3.5,1.2-7,1.2-10.5,2.3c-5.8,1.8-9.8,6.1-16.3,5.8c0-2.3,1.2-4.7,1.2-5.8c0,0-1.2,0-1.2-1.2c-12.5,4-17.7,17.9-28,24.5
		c-4.7-2.3-3.5-5.8-3.5-10.5c-7.2-0.7-13.6,8.1-18.7,12.8c-2.3,1.2-3.5,2.3-5.8,4.7c0-2.3-1.2-3.5-1.2-5.8h-1.2
		c-11.1,9.1-16.7,22.7-24.5,35h-1.2C56.3,71.4,55.2,67.9,52.8,63.2z M168.4,119.2C168.4,119.2,168.4,118,168.4,119.2
		C128.3,176.1,95.5,245.8,26,270.9c-3.5,2.3-4.7,3.5-1.2,7c2.3,2.3,4.7,5.8,8.2,8.2c3.5,3.5,5.8,3.5,8.2,0
		C97.1,242.9,134.4,179.5,168.4,119.2z"/>
	<path class="st1" d="M168.4,119.2c-33.1,61.3-70,123.4-126,166.9c-3.5,2.3-5.8,2.3-8.2,0c-2.9-3.2-14.9-10.8-7-15.2
		C95.7,245.6,131.2,177.1,168.4,119.2C168.4,118,168.4,119.2,168.4,119.2z"/>
</g>
</svg>
